<svg viewBox="0 0 22 22" xmlns="http://www.w3.org/2000/svg">
<path d="M0 4.5C0 3.80964 0.559644 3.25 1.25 3.25H20.75C21.4404 3.25 22 3.80964 22 4.5C22 5.19036 21.4404 5.75 20.75 5.75H1.25C0.559644 5.75 0 5.19036 0 4.5Z"/>
<path d="M0 17.5C0 16.8096 0.559644 16.25 1.25 16.25H20.75C21.4404 16.25 22 16.8096 22 17.5C22 18.1904 21.4404 18.75 20.75 18.75H1.25C0.559644 18.75 0 18.1904 0 17.5Z"/>
<path d="M4 11C4 10.3096 4.55964 9.75 5.25 9.75H20.75C21.4404 9.75 22 10.3096 22 11C22 11.6904 21.4404 12.25 20.75 12.25H5.25C4.55964 12.25 4 11.6904 4 11Z"/>
</svg>
