<svg viewBox="0 0 20 20" fill="none" xmlns="http://www.w3.org/2000/svg">
<path d="M16.3647 4.71597e-07C16.1439 0.00023889 15.9282 0.0663132 15.7452 0.189781C15.5621 0.313248 15.42 0.488501 15.337 0.693146C15.2541 0.897791 15.234 1.12253 15.2793 1.33866C15.3247 1.55478 15.4334 1.75247 15.5917 1.90647L16.1987 2.51392C13.0662 2.5645 10.0788 3.84346 7.87969 6.07543C5.68062 8.30739 4.44582 11.3138 4.44113 14.4475C4.43907 14.5933 4.46575 14.7381 4.51964 14.8736C4.57354 15.0091 4.65359 15.1327 4.75523 15.2373C4.85688 15.3419 4.97812 15.4254 5.11204 15.4831C5.24595 15.5408 5.38993 15.5716 5.53573 15.5736C5.68153 15.5757 5.82632 15.549 5.96181 15.4951C6.0973 15.4412 6.22086 15.3611 6.32541 15.2595C6.42997 15.1578 6.51348 15.0365 6.57118 14.9026C6.62888 14.7687 6.65964 14.6247 6.6617 14.4788C6.6617 14.4683 6.6617 14.458 6.6617 14.4475C6.65788 11.9032 7.65427 9.45936 9.43588 7.64332C11.2175 5.82727 13.6415 4.78458 16.1849 4.74021L15.5917 5.3335C15.4865 5.43451 15.4023 5.55525 15.3437 5.68883C15.2852 5.82241 15.2536 5.96621 15.2506 6.11202C15.2476 6.25783 15.2734 6.4028 15.3265 6.53865C15.3795 6.67449 15.4588 6.79856 15.5598 6.90376C15.6608 7.00896 15.7815 7.09324 15.915 7.15178C16.0486 7.21032 16.1924 7.24197 16.3381 7.24494C16.4839 7.2479 16.6289 7.22212 16.7647 7.16906C16.9005 7.11599 17.0245 7.0367 17.1297 6.93569C17.1405 6.92542 17.1514 6.91459 17.1616 6.90376L19.5612 4.50395C19.698 4.40008 19.8088 4.2659 19.8849 4.11197C19.961 3.95803 20.0004 3.78853 20 3.6168C19.9996 3.44506 19.9593 3.27576 19.8824 3.12221C19.8055 2.96866 19.6941 2.83504 19.5568 2.73185L17.1616 0.336207C17.0581 0.229691 16.9341 0.14505 16.7973 0.0872999C16.6604 0.0295495 16.5133 -0.000136465 16.3647 4.71597e-07V4.71597e-07ZM3.60842 0.0108279C2.6528 0.0153541 1.73761 0.397057 1.06188 1.07293C0.38615 1.7488 0.00452526 2.66417 0 3.61998L0 16.3908C0.00452526 17.3467 0.38615 18.262 1.06188 18.9379C1.73761 19.6138 2.6528 19.9955 3.60842 20H16.3767C17.3323 19.9955 18.2475 19.6138 18.9232 18.9379C19.5989 18.262 19.9806 17.3467 19.9851 16.3908V12.2264C19.9871 12.0806 19.9605 11.9358 19.9066 11.8003C19.8527 11.6647 19.7726 11.5412 19.671 11.4366C19.5693 11.332 19.4481 11.2485 19.3142 11.1908C19.1803 11.1331 19.0363 11.1023 18.8905 11.1002C18.596 11.0961 18.312 11.2091 18.1008 11.4144C17.8896 11.6197 17.7687 11.9005 17.7645 12.1951C17.7645 12.2056 17.7645 12.2159 17.7645 12.2264V16.3908C17.7667 16.5737 17.7323 16.7552 17.6633 16.9246C17.5943 17.094 17.4921 17.2479 17.3628 17.3772C17.2335 17.5065 17.0797 17.6087 16.9103 17.6777C16.741 17.7467 16.5595 17.7811 16.3767 17.779H3.60842C3.42556 17.7811 3.24412 17.7467 3.07477 17.6777C2.90541 17.6087 2.75155 17.5065 2.62225 17.3772C2.49294 17.2479 2.39079 17.094 2.32181 16.9246C2.25283 16.7552 2.21841 16.5737 2.22057 16.3908V3.61998C2.21841 3.43709 2.25283 3.25561 2.32181 3.08622C2.39079 2.91683 2.49294 2.76294 2.62225 2.63361C2.75155 2.50428 2.90541 2.40211 3.07477 2.33311C3.24412 2.26412 3.42556 2.22969 3.60842 2.23185H7.77198C7.91778 2.23391 8.06256 2.20722 8.19806 2.15332C8.33355 2.09941 8.4571 2.01934 8.56166 1.91768C8.66622 1.81601 8.74973 1.69475 8.80743 1.5608C8.86513 1.42686 8.89588 1.28286 8.89794 1.13702C8.9 0.991189 8.87332 0.846377 8.81943 0.710856C8.76554 0.575334 8.68548 0.451757 8.58384 0.34718C8.4822 0.242603 8.36095 0.159075 8.22704 0.101363C8.09312 0.0436518 7.94915 0.0128878 7.80334 0.0108279H3.60842V0.0108279Z" fill="#F6F4E6"/>
</svg>
