<svg viewBox="0 0 26 29" fill="none" xmlns="http://www.w3.org/2000/svg">
<path d="M19.9952 9.87302L13.0007 13.9525L6.00571 9.87325L13.0007 5.98726L19.9952 9.87302ZM13.6195 15.0366V22.4963L20.5905 18.6247V10.9708L13.6195 15.0366ZM0.911304 22.4484L12.3804 29V23.9244L5.2093 19.9416L0.911304 22.4484ZM12.3804 22.4963V15.0357L5.40948 10.9705V18.6247L12.3804 22.4963ZM13.6196 0V4.90292L21.2494 9.14162L25.3914 6.72588L13.6196 0ZM20.7919 19.941L13.6196 23.9244V28.9999L25.0902 22.4476L20.7919 19.941ZM21.8296 10.2482V19.1014L26 21.5334V7.8159L21.8296 10.2482ZM4.75151 9.14202L12.3804 4.90383V0L0.608569 6.72577L4.75151 9.14202ZM4.17037 19.1026V10.2479L0 7.8159V21.535L4.17037 19.1026Z" fill="#F6F4E6"/>
</svg>
