<svg viewBox="0 0 26 28" xmlns="http://www.w3.org/2000/svg">
<path d="M12.9935 3.18858e-05C12.5972 -0.00205298 12.2071 0.0981355 11.8614 0.290801L1.12126 6.4508C0.779812 6.65053 0.496751 6.93543 0.300091 7.27731C0.103432 7.6192 -8.17841e-06 8.0062 8.75898e-06 8.40003V19.5785C-0.00109366 19.9725 0.101887 20.36 0.298654 20.702C0.49542 21.0441 0.779077 21.3288 1.12126 21.5277L3.93793 23.1431C4.68103 23.5936 5.53767 23.8248 6.40793 23.8097C8.43376 23.8097 9.59184 22.5939 9.59184 20.4831V8.95034C9.59198 8.90933 9.584 8.86869 9.56834 8.83074C9.55269 8.7928 9.52966 8.75829 9.50059 8.72919C9.47152 8.70009 9.43696 8.67697 9.3989 8.66114C9.36084 8.64532 9.32001 8.6371 9.27876 8.63696H7.93001C7.88841 8.63623 7.84708 8.64383 7.8085 8.65932C7.76992 8.67481 7.73488 8.69787 7.70546 8.72712C7.67604 8.75637 7.65284 8.7912 7.63726 8.82956C7.62168 8.86791 7.61402 8.90899 7.61476 8.95034V20.4734C7.61476 21.4211 6.63001 22.3473 5.03751 21.5611L2.08976 19.8682C2.03684 19.8404 1.99266 19.7987 1.96208 19.7476C1.93149 19.6965 1.9157 19.638 1.91643 19.5785V8.41188C1.91571 8.35054 1.93138 8.29012 1.96184 8.23676C1.99229 8.18341 2.03643 8.13904 2.08976 8.10819L12.8267 1.95034C12.8769 1.91863 12.9351 1.90179 12.9946 1.90179C13.0541 1.90179 13.1123 1.91863 13.1625 1.95034L23.8983 8.10819C23.9504 8.1378 23.9937 8.18039 24.0241 8.23177C24.0545 8.28314 24.0709 8.34151 24.0717 8.40111V19.5785C24.072 19.6366 24.0572 19.6938 24.0287 19.7446C24.0003 19.7953 23.9591 19.8379 23.9092 19.8682L13.1625 26.04C13.1106 26.0666 13.053 26.0804 12.9946 26.0804C12.9362 26.0804 12.8786 26.0666 12.8267 26.04L10.0631 24.4139C10.0263 24.3871 9.98271 24.3708 9.93722 24.3671C9.89173 24.3633 9.84607 24.372 9.80526 24.3923C9.29572 24.7015 8.74999 24.9475 8.18026 25.1246C8.00692 25.1785 7.73501 25.2862 8.27667 25.5877L11.8614 27.6996C12.206 27.8961 12.5963 27.9995 12.9935 27.9995C13.3907 27.9995 13.781 27.8961 14.1256 27.6996L24.8744 21.5277C25.2174 21.3294 25.5019 21.0449 25.6995 20.7028C25.897 20.3607 26.0007 19.973 26 19.5785V8.41188C26.0006 8.01728 25.897 7.62943 25.6995 7.28716C25.5019 6.94489 25.2174 6.66019 24.8744 6.46157L14.1213 0.290801C13.7768 0.098856 13.3884 -0.00130828 12.9935 3.18858e-05ZM15.8817 8.62188C12.8158 8.62188 10.985 9.91419 10.985 12.068C10.985 14.405 12.8039 15.05 15.7517 15.3408C19.2725 15.6854 19.5433 16.2023 19.5433 16.8937C19.5433 18.0783 18.5803 18.5845 16.3161 18.5845C13.4669 18.5845 12.8386 17.8726 12.6328 16.4726C12.6225 16.4004 12.5862 16.3344 12.5306 16.2869C12.475 16.2393 12.4039 16.2135 12.3305 16.2142H10.9308C10.8909 16.2142 10.8514 16.222 10.8145 16.2372C10.7776 16.2525 10.7442 16.2748 10.716 16.3029C10.6878 16.331 10.6655 16.3644 10.6503 16.4011C10.6351 16.4378 10.6274 16.4771 10.6275 16.5168C10.6275 18.3153 11.6133 20.4562 16.315 20.4562C19.7167 20.4562 21.6667 19.123 21.6667 16.7946C21.6667 14.49 20.0958 13.8751 16.8025 13.4336C13.455 13.0028 13.1192 12.7766 13.1192 12.0013C13.1192 11.3551 13.4128 10.5054 15.8828 10.5054C18.0819 10.5054 18.9053 10.9771 19.2411 12.4525C19.2539 12.5223 19.2903 12.5857 19.3443 12.6321C19.3983 12.6785 19.4666 12.7052 19.5379 12.7077H20.9463C20.9893 12.7056 21.0315 12.695 21.0703 12.6765C21.1092 12.658 21.144 12.632 21.1727 12.6C21.2023 12.5687 21.2244 12.5311 21.2376 12.4901C21.2507 12.4491 21.2544 12.4057 21.2485 12.3631C21.0264 9.81618 19.3267 8.62188 15.8817 8.62188Z"/>
</svg>
