<svg viewBox="0 0 26 26" fill="none" xmlns="http://www.w3.org/2000/svg">
<path d="M24.3509 0H1.65162C1.21363 0.000164071 0.793632 0.174226 0.483929 0.483929C0.174226 0.793632 0.000164071 1.21363 0 1.65162L0 24.3484C0.000164071 24.7864 0.174226 25.2064 0.483929 25.5161C0.793632 25.8258 1.21363 25.9998 1.65162 26H24.3484C24.786 26 25.2057 25.8263 25.5154 25.5171C25.825 25.2079 25.9993 24.7885 26 24.3509V1.65162C26 1.21401 25.8263 0.79429 25.5171 0.484623C25.2079 0.174955 24.7885 0.000656084 24.3509 0V0ZM14.2381 19.9234C14.2381 22.3996 12.787 23.5238 10.6687 23.5238C9.85853 23.5119 9.06786 23.2737 8.38594 22.8361C7.70402 22.3986 7.158 21.7791 6.80952 21.0476L8.75643 19.8714C8.91341 20.2118 9.16172 20.5019 9.47374 20.7095C9.78576 20.9172 10.1493 21.0342 10.5238 21.0476C11.31 21.0476 11.7619 20.7381 11.7619 19.5458V11.7619H14.2381V19.9234ZM19.609 23.5238C18.7519 23.5692 17.9008 23.3578 17.1645 22.9167C16.4283 22.4756 15.8404 21.8248 15.4762 21.0476L17.3333 19.8095C17.8385 20.6366 18.39 21.4271 19.5557 21.4271C20.535 21.4271 21.0476 20.9387 21.0476 20.2614C21.0476 19.4567 20.5159 19.1663 19.4381 18.6946L18.8481 18.4408C17.1433 17.7153 16.0092 16.8059 16.0092 14.8813C16.0092 13.1114 17.3612 11.7619 19.4697 11.7619C20.1534 11.7125 20.8365 11.8655 21.4339 12.2018C22.0312 12.5381 22.5163 13.0429 22.8286 13.6531L20.9907 14.8355C20.8702 14.5319 20.6602 14.2723 20.3884 14.0913C20.1166 13.9102 19.7962 13.8163 19.4697 13.8221C19.3276 13.808 19.1842 13.8236 19.0485 13.868C18.9129 13.9124 18.788 13.9846 18.6817 14.0799C18.5755 14.1752 18.4903 14.2917 18.4315 14.4218C18.3728 14.5518 18.3418 14.6927 18.3405 14.8355C18.3405 15.5437 18.7782 15.829 19.7916 16.2692L20.3815 16.523C22.3922 17.3816 23.5238 18.2619 23.5238 20.233C23.5238 22.3581 21.8524 23.5238 19.609 23.5238Z" fill="#F6F4E6"/>
</svg>
