<svg viewBox="0 0 26 26" fill="none" xmlns="http://www.w3.org/2000/svg">
<path fill-rule="evenodd" clip-rule="evenodd" d="M2 0C0.895431 0 0 0.89543 0 2V24C0 25.1046 0.89543 26 2 26H24C25.1046 26 26 25.1046 26 24V2C26 0.895431 25.1046 0 24 0H2ZM6.77075 5.90969C7.06797 5.76571 7.36604 5.68765 7.66151 5.6875C8.01061 5.69059 8.35258 5.80016 8.65174 6.00477H8.6535C8.9695 6.22196 9.26613 6.55925 9.54251 7.02966C9.60375 7.13003 9.64574 7.24392 9.66574 7.36395C9.68334 7.47104 9.69214 7.57513 9.69214 7.67121C9.69214 7.90041 9.64373 8.08958 9.54251 8.22769C9.50036 8.29292 9.44518 8.34581 9.38151 8.38201C9.31785 8.41821 9.24752 8.43667 9.17634 8.43587C9.04519 8.43587 8.92285 8.35881 8.81722 8.20868C8.71512 8.06255 8.59629 7.86138 8.47834 7.60215V7.60316C8.36392 7.36995 8.24245 7.20481 8.10866 7.10673C7.97893 7.00957 7.82651 6.959 7.6712 6.9616C7.42298 6.9616 7.16508 7.0797 6.87725 7.32391C6.58678 7.56812 6.30512 7.87839 6.02345 8.27474C5.74091 8.67208 5.46628 9.12647 5.20838 9.63791C4.9496 10.1494 4.71635 10.6698 4.51654 11.2103C4.31674 11.7497 4.1583 12.2702 4.04211 12.7906C3.92593 13.3111 3.86783 13.7725 3.86783 14.1858C3.8678 14.3271 3.87603 14.4682 3.89248 14.6082C3.90786 14.7411 3.93803 14.8713 3.98226 14.9955C4.0189 15.1042 4.081 15.1994 4.16182 15.2708C4.23985 15.3408 4.33709 15.3773 4.43644 15.3739C4.59153 15.3674 4.74277 15.3172 4.87655 15.2277C5.04907 15.1247 5.22247 14.9935 5.40467 14.8234C5.97606 14.2913 6.48226 13.6746 6.90982 12.9898V12.9888C7.01431 12.8261 7.1076 12.6544 7.18884 12.4754L7.67296 10.7098V10.7088C7.73633 10.5157 7.82083 10.3725 7.93438 10.2865C8.03097 10.2058 8.14727 10.1614 8.26709 10.1594C8.32387 10.1595 8.38029 10.1696 8.43433 10.1894C8.49082 10.2106 8.54292 10.2447 8.58749 10.2895C8.63662 10.3381 8.67416 10.4001 8.69663 10.4696C8.72657 10.5504 8.74155 10.6372 8.74064 10.7249C8.74293 11.1648 8.67739 11.6018 8.547 12.016C8.49595 12.2131 8.42906 12.4133 8.36216 12.6135C8.29527 12.8126 8.22925 13.0218 8.16235 13.24L8.09898 13.4192L7.91061 13.9496C7.85516 14.1458 7.7953 14.367 7.73193 14.6112L7.53388 15.3619C7.48645 15.5218 7.44574 15.68 7.40525 15.8375C7.38188 15.9284 7.35855 16.019 7.33408 16.1095L7.16684 16.7721L7.04097 17.2675L6.982 17.5077V17.5087L6.97343 17.5356L6.96629 17.5584C6.94559 17.6247 6.92283 17.6975 6.88781 17.7779C6.84468 17.876 6.79363 17.9691 6.74346 18.0562L6.7417 18.0572V18.0592C6.68097 18.1463 6.62023 18.2233 6.54893 18.2834C6.4826 18.3436 6.40055 18.377 6.31568 18.3785C6.25968 18.3816 6.20384 18.3695 6.15283 18.343C6.10183 18.3165 6.05716 18.2765 6.02257 18.2263C5.95304 18.1192 5.93103 17.9491 5.93103 17.7079V17.4927C5.93103 17.4004 5.9641 17.2579 6.01277 17.0482L6.01553 17.0363C6.0657 16.8181 6.12468 16.5719 6.19949 16.2977C6.2369 16.1447 6.27913 15.9898 6.32205 15.8325C6.35689 15.7047 6.39219 15.5753 6.42571 15.4439L6.59823 14.8354C6.43363 15.0336 6.26727 15.2337 6.08507 15.4259C5.85797 15.6741 5.62208 15.8943 5.38618 16.0865C5.14237 16.2776 4.89767 16.4408 4.65209 16.5659C4.40476 16.691 4.16446 16.7511 3.93297 16.7511C3.66715 16.7511 3.44093 16.682 3.24993 16.5439C3.06055 16.413 2.89911 16.2359 2.77726 16.0254C2.65843 15.8122 2.56425 15.57 2.5044 15.3078L2.50352 15.3058V15.3038C2.47095 15.0576 2.4375 14.7884 2.4375 14.5271V14.4321C2.43805 14.4015 2.441 14.371 2.4463 14.341C2.46567 13.8626 2.52552 13.3751 2.62234 12.8747C2.72269 12.3703 2.84944 11.8728 3.00787 11.3764C3.16807 10.881 3.35203 10.3936 3.5624 9.92016V9.91916C3.77981 9.46576 4.0069 9.01838 4.24984 8.59801C4.49366 8.17865 4.75508 7.78731 5.03058 7.43301C5.28933 7.0974 5.57518 6.79013 5.88438 6.51522C6.17573 6.25599 6.47148 6.05482 6.77075 5.90969ZM16.9494 6.66334C17.058 6.58694 17.1827 6.54544 17.3103 6.54324C17.4332 6.54155 17.5527 6.58863 17.6483 6.67635C17.7531 6.76943 17.8067 6.92357 17.8067 7.11974C17.8049 7.22115 17.7886 7.32155 17.7583 7.41699V7.419C17.7495 7.44369 17.7406 7.46957 17.7314 7.49645C17.7061 7.5703 17.6781 7.65201 17.6404 7.73727C17.5488 7.96647 17.4397 8.24971 17.3147 8.586L16.8966 9.68896C16.8553 9.80396 16.8131 9.92058 16.7704 10.0387C16.6668 10.3255 16.5598 10.6214 16.4539 10.924L16.0023 12.1791C15.8518 12.5855 15.718 12.9668 15.593 13.3321L15.2638 14.2849L15.2392 14.315C15.2005 14.4261 15.1617 14.5542 15.1248 14.7003C15.086 14.8474 15.0684 14.9775 15.0684 15.0906C15.0659 15.1442 15.0756 15.1977 15.0966 15.2458C15.1098 15.2738 15.1327 15.2878 15.1855 15.2878C15.2806 15.2803 15.3732 15.2503 15.4575 15.1997C15.571 15.1387 15.6943 15.0596 15.8263 14.9585C15.9592 14.8584 16.0983 14.7433 16.2409 14.6132C16.3242 14.5369 16.4076 14.4573 16.4906 14.378C16.5513 14.32 16.6119 14.2621 16.6722 14.2059C16.8139 14.0637 16.9512 13.9216 17.0806 13.7795C17.1551 13.6981 17.2254 13.6198 17.2913 13.5462C17.3398 13.492 17.386 13.4404 17.4299 13.3922L17.4291 13.3932L17.4318 13.3902L17.4299 13.3922C17.4625 13.3521 17.5034 13.3218 17.5488 13.3041C17.5612 13.2981 17.5726 13.2941 17.5849 13.2901C17.6316 13.1259 17.6765 12.9638 17.717 12.8046V12.8036L17.834 12.4253C17.8846 12.2612 17.9439 12.1007 18.0118 11.9449C18.0748 11.7959 18.1525 11.6556 18.2433 11.5265C18.3314 11.4064 18.4352 11.3364 18.5426 11.3364C18.6993 11.3364 18.8181 11.3754 18.8947 11.4655H18.8964V11.4665C18.9743 11.5701 19.014 11.7038 19.0073 11.8398C19.0073 11.8728 19.0047 11.9209 18.9959 11.9889V11.9899C18.988 12.056 18.9792 12.1241 18.966 12.1971L18.9343 12.3733C19.0428 12.2438 19.1543 12.1176 19.2688 11.9949C19.426 11.833 19.5921 11.6825 19.7661 11.5446C19.9301 11.4118 20.1066 11.3004 20.2924 11.2123C20.5819 11.0683 20.9062 11.0425 21.2105 11.1392C21.3311 11.1802 21.4446 11.2403 21.5415 11.3204C21.6415 11.3984 21.7248 11.501 21.7853 11.6206C21.8492 11.7508 21.8814 11.898 21.8786 12.047C21.8786 12.2582 21.8302 12.4804 21.7413 12.7136C21.6488 12.9468 21.5388 13.184 21.398 13.4142C21.2642 13.6494 21.1146 13.8766 20.9561 14.0968L20.8932 14.1839C20.7594 14.3693 20.636 14.5404 20.5125 14.6973L20.1622 15.1627C20.1164 15.2237 20.0821 15.2748 20.0592 15.3148C20.0372 15.3539 20.0284 15.3829 20.0284 15.3899C20.0276 15.4099 20.0306 15.4299 20.0371 15.4485C20.0437 15.4672 20.0536 15.484 20.0662 15.498C20.0874 15.521 20.1349 15.541 20.2035 15.541C20.2528 15.541 20.3417 15.503 20.4579 15.4239C20.6334 15.2987 20.8021 15.1617 20.9632 15.0136L21.0151 14.9658C21.2246 14.773 21.4874 14.5313 21.7958 14.2249C22.1206 13.9056 22.5308 13.4992 23.0044 13.0178C23.0003 13.0017 22.984 12.9875 22.969 12.9744C22.9421 12.9509 22.9192 12.931 22.9779 12.9097C23.0316 12.8687 23.0809 12.8347 23.1276 12.8087C23.1721 12.7818 23.2215 12.767 23.2719 12.7656C23.3168 12.7652 23.3608 12.7788 23.3993 12.8049C23.4378 12.831 23.4693 12.8687 23.4902 12.9137C23.5393 13.0126 23.5642 13.1245 23.5624 13.238C23.5624 13.3731 23.536 13.5103 23.4841 13.6484C23.4357 13.7868 23.3562 13.9083 23.2535 14.0007C22.8618 14.396 22.5114 14.7563 22.2113 15.0816C21.9023 15.4079 21.6163 15.6891 21.339 15.9253C21.0617 16.1656 20.7906 16.3477 20.5283 16.4818C20.2643 16.6179 19.9817 16.686 19.6745 16.686C19.3938 16.686 19.1667 16.6179 19.0056 16.4658C18.8454 16.3247 18.7644 16.1165 18.7644 15.8593V15.8022C18.7644 15.7852 18.7662 15.7793 18.7682 15.7724L18.7697 15.7672C18.7707 15.7624 18.7716 15.7576 18.7723 15.7527L18.7732 15.7452V15.7382C18.8035 15.55 18.8647 15.3701 18.9537 15.2077V15.2067C19.064 14.9976 19.1851 14.7961 19.3163 14.6032C19.4589 14.394 19.6103 14.1848 19.7687 13.9747C19.8597 13.8552 19.9451 13.7386 20.0283 13.6251C20.09 13.541 20.1508 13.458 20.2115 13.3771C20.3444 13.188 20.4518 13.0178 20.5433 12.8577V12.8567C20.6322 12.7106 20.6701 12.5835 20.6701 12.5034C20.6707 12.4842 20.6677 12.4651 20.6613 12.4473C20.655 12.4295 20.6453 12.4135 20.6331 12.4003C20.6023 12.3793 20.5521 12.3613 20.4764 12.3613C20.3233 12.3653 20.1731 12.4091 20.0372 12.4894C19.8832 12.5724 19.7309 12.6946 19.5786 12.8347C19.429 12.9858 19.2802 13.1459 19.1385 13.3331C18.9968 13.5213 18.8648 13.7184 18.731 13.9186V13.9196C18.6069 14.1268 18.4907 14.325 18.3824 14.5321V14.5331C18.2821 14.7413 18.1914 14.9295 18.1166 15.0996L18.1157 15.1006L18.025 15.3268L17.9 15.6691L17.7487 16.0495L17.6069 16.4198L17.4899 16.733C17.4587 16.823 17.4341 16.8791 17.4173 16.917L17.4151 16.9222C17.4083 16.9414 17.3998 16.9692 17.3889 17.0031C17.3744 17.0486 17.3556 17.1076 17.3314 17.1784L17.1818 17.6138L17.0066 18.1363L16.6968 19.0851C16.6554 19.2082 16.6299 19.2923 16.6229 19.3293V19.3333L16.6211 19.3373C16.5797 19.4604 16.5375 19.5855 16.4856 19.7026C16.4345 19.8187 16.3782 19.9208 16.3113 20.0109C16.2465 20.0996 16.1681 20.1742 16.0798 20.2311L16.0789 20.2321C15.99 20.2821 15.8914 20.3121 15.784 20.3121C15.6595 20.3168 15.5369 20.2765 15.4337 20.197C15.3343 20.117 15.2823 19.9578 15.2823 19.7496C15.2823 19.6516 15.2911 19.5445 15.3175 19.4344C15.3338 19.3343 15.3637 19.2428 15.3939 19.1504L15.4011 19.1281V19.1271C15.4193 19.0512 15.4455 18.982 15.4704 18.9162C15.4816 18.8865 15.4925 18.8575 15.5024 18.8289C15.536 18.7374 15.5665 18.6446 15.5939 18.5506L15.5948 18.5486L15.5957 18.5456C15.7573 18.1292 15.9283 17.7128 16.1007 17.2928L16.1977 17.0563C16.4019 16.5569 16.5982 16.0685 16.791 15.5841C16.8181 15.5154 16.8437 15.4471 16.8693 15.379L16.8698 15.3776C16.884 15.34 16.8981 15.3024 16.9125 15.2648L16.9037 15.2738C16.6686 15.531 16.4248 15.7702 16.1889 15.9714C15.953 16.1726 15.7163 16.3267 15.4804 16.4518H15.4786C15.2401 16.5679 15.0086 16.627 14.7859 16.627C14.6301 16.627 14.4981 16.5979 14.3898 16.5359C14.2833 16.4758 14.2041 16.3948 14.1337 16.2957L14.1328 16.2937C14.0694 16.1876 14.0237 16.0687 13.9999 15.9434L13.9955 15.9073L13.9745 15.9255C13.9262 15.9674 13.8782 16.0091 13.8282 16.0485C13.5994 16.2326 13.3732 16.3817 13.1505 16.4948C12.926 16.6079 12.7227 16.665 12.5396 16.665C12.454 16.6679 12.3687 16.6504 12.2894 16.6135C12.2101 16.5766 12.1385 16.5212 12.0793 16.4508C11.9569 16.3037 11.9015 16.0635 11.9015 15.7332C11.9015 15.556 11.9349 15.3388 11.9701 15.1186L11.9572 15.1418C11.8822 15.2765 11.806 15.4135 11.7061 15.546C11.5626 15.7482 11.3953 15.9314 11.2105 16.0945C11.023 16.2586 10.8135 16.3938 10.582 16.4908C10.3505 16.5879 10.0979 16.646 9.82418 16.646C9.70095 16.646 9.57948 16.627 9.46329 16.5869C9.34612 16.5518 9.23767 16.4864 9.14642 16.3958C9.05752 16.3047 8.9871 16.1856 8.92725 16.0384V16.0364C8.87355 15.8863 8.84803 15.7002 8.84803 15.486V15.484L8.86563 15.2528V15.2518C8.89754 15.0144 8.94551 14.7802 9.00911 14.5512C9.09273 14.2359 9.20979 13.8265 9.37703 13.3211C9.58582 12.7039 9.81782 12.0971 10.0724 11.5025C10.1499 11.3084 10.237 11.1672 10.3532 11.0762C10.4259 11.0132 10.5109 10.971 10.6009 10.9531C10.691 10.9351 10.7835 10.942 10.8707 10.9731C10.9314 10.9882 10.9888 11.0171 11.0395 11.0581C11.0901 11.099 11.133 11.1511 11.1656 11.2113L11.1665 11.2123V11.2133C11.1989 11.2786 11.2153 11.3525 11.214 11.4275C11.214 11.4825 11.2043 11.5326 11.1955 11.5726V11.5736L11.1947 11.5756C11.17 11.6627 11.1357 11.7698 11.0758 11.9059L10.8575 12.3763V12.3773C10.8001 12.4947 10.7422 12.6223 10.6812 12.7567C10.6544 12.8158 10.627 12.8763 10.5988 12.9378C10.5081 13.1389 10.4245 13.3531 10.3497 13.5633C10.2748 13.7805 10.2088 14.0017 10.1507 14.2239C10.0926 14.4481 10.061 14.6633 10.0521 14.8674C10.0508 14.9456 10.0665 15.023 10.0979 15.0926C10.1234 15.1507 10.1719 15.1807 10.2449 15.1807C10.4694 15.1807 10.6938 15.0986 10.9051 14.9235C11.119 14.7483 11.317 14.5291 11.4992 14.2689C11.6839 14.0006 11.8502 13.7165 11.9965 13.4192C12.1462 13.1169 12.2632 12.8427 12.3627 12.5925C12.4296 12.4253 12.4956 12.2472 12.5449 12.057C12.5922 11.8732 12.6514 11.6935 12.7218 11.5195C12.7757 11.3665 12.8512 11.2245 12.9454 11.0992C12.9847 11.0419 13.0353 10.9959 13.0931 10.9648C13.1508 10.9337 13.2142 10.9183 13.2781 10.92C13.3445 10.9184 13.4103 10.9348 13.47 10.9678C13.5297 11.0009 13.5816 11.0497 13.6214 11.1102C13.7048 11.2361 13.7491 11.3899 13.7472 11.5476C13.7401 11.6775 13.7136 11.8051 13.6689 11.9249L13.655 11.9672C13.6079 12.1104 13.5529 12.2774 13.4841 12.4594L13.2411 13.1039C13.1522 13.3301 13.0717 13.5605 13 13.7945C12.9251 14.0267 12.8591 14.2579 12.8089 14.4781C12.7597 14.7033 12.735 14.9085 12.735 15.0936C12.735 15.1757 12.7535 15.2267 12.7843 15.2598C12.8151 15.2928 12.8635 15.3128 12.9357 15.3128C13.0448 15.3128 13.1813 15.2768 13.3432 15.1837H13.345C13.5087 15.0996 13.6812 14.9785 13.8634 14.8184C13.9409 14.7496 14.0164 14.6778 14.0896 14.6032C14.1315 14.416 14.1832 14.2318 14.2446 14.0517C14.2962 13.9018 14.3466 13.753 14.3967 13.6049C14.4763 13.3696 14.5553 13.1362 14.638 12.9027L15.0051 11.8568L16.6678 7.09472C16.7179 6.92075 16.8161 6.76982 16.9477 6.66434L16.9494 6.66334Z" fill="#F6F4E6"/>
</svg>
