<svg viewBox="0 0 40 40" xmlns="http://www.w3.org/2000/svg">
<path d="M20.9592 22L28.8 15.7592V24.6408C28.8 25.2816 28.1592 25.8408 27.3592 25.8408H12.6408C11.8408 25.8408 11.2 25.2816 11.2 24.6408V15.7592L18.9592 22C19.2 22.2408 19.6 22.3184 20 22.3184C20.3184 22.3184 20.7184 22.2408 20.9592 22ZM26.7184 14.1592H13.2816L19.9184 19.5184L26.7184 14.1592ZM40 20C40 31.0408 31.0408 40 20 40C8.95918 40 0 31.0408 0 20C0 8.95918 8.95918 0 20 0C31.0408 0 40 8.95918 40 20ZM31.7592 14.1592C31.7592 12.8776 30.4775 11.8408 28.8 11.8408H11.2C9.6 11.8408 8.24082 12.8816 8.24082 14.1592V25.8408C8.24082 27.1224 9.52245 28.1592 11.2 28.1592H28.8C30.4 28.1592 31.7592 27.1184 31.7592 25.8408V14.1592Z"/>
</svg>
