<svg viewBox="0 0 26 24" fill="none" xmlns="http://www.w3.org/2000/svg">
<path d="M8.31964 0.000545941C7.68295 -0.00988961 7.05499 0.153048 6.5 0.472687C4.80025 1.47945 4.15278 3.92593 4.49619 6.97396C1.74706 8.19443 0 9.99093 0 12C0 14.0091 1.74706 15.806 4.49619 17.0261C4.15278 20.0741 4.80025 22.5224 6.5 23.5274C7.05488 23.8473 7.68292 24.0102 8.31964 23.9995C9.73086 23.9995 11.362 23.2745 13 22.0303C14.6384 23.2745 16.2713 23.9995 17.6825 23.9995C18.3192 24.0099 18.9472 23.847 19.5022 23.5274C21.2016 22.5224 21.8494 20.0741 21.506 17.0261C24.254 15.806 26 14.0087 26 12C26 9.9913 24.2529 8.19443 21.5038 6.97396C21.8472 3.92593 21.1998 1.47945 19.5 0.472687C18.9453 0.152281 18.3171 -0.0107105 17.6804 0.000545941C16.2691 0.000545941 14.638 0.72558 13 1.96971C11.3616 0.72558 9.7305 0.000545941 8.31964 0.000545941ZM8.31964 1.94161C9.16644 1.94161 10.2863 2.40266 11.5021 3.25673C10.7508 3.9869 10.0527 4.77245 9.41344 5.60708C8.37286 5.75784 7.34461 5.98733 6.33714 6.29366C6.33208 6.226 6.31981 6.15501 6.31583 6.08809C6.19992 4.11375 6.6235 2.64187 7.44792 2.15383C7.71468 2.00442 8.01574 1.93112 8.31964 1.94161V1.94161ZM17.6804 1.94161C17.9842 1.93127 18.2853 2.00456 18.5521 2.15383C19.3765 2.64076 19.8001 4.11338 19.6842 6.08809C19.6802 6.15501 19.6679 6.226 19.6629 6.29366C18.6547 5.98733 17.6257 5.75785 16.5844 5.60708C15.946 4.77242 15.2486 3.98686 14.4979 3.25673C15.7138 2.40377 16.8339 1.94161 17.6804 1.94161ZM13 4.4894C13.2936 4.76299 13.5854 5.05212 13.8804 5.36898C13.5879 5.35862 13.2972 5.34494 13 5.34494C12.7028 5.34494 12.4136 5.35862 12.1218 5.36898C12.4164 5.05249 12.7068 4.76262 13 4.4894ZM13 7.28416C13.8538 7.28396 14.7071 7.33099 15.5559 7.42503C16.0734 8.13583 16.5517 8.8757 16.9885 9.64117C17.4173 10.4046 17.8051 11.1914 18.1502 11.9982C17.8054 12.8057 17.4176 13.5933 16.9885 14.3574C16.5528 15.1199 16.076 15.8569 15.5603 16.565C14.7101 16.6618 13.8554 16.7112 13 16.7129C12.1462 16.7131 11.2929 16.6661 10.4441 16.5721C9.9265 15.8621 9.44824 15.123 9.01153 14.3581C8.58259 13.594 8.19478 12.8064 7.84983 11.9989C8.19486 11.1922 8.58267 10.4053 9.01153 9.64191C9.44709 8.87867 9.92389 8.1409 10.4397 7.43205C11.2899 7.33509 12.1446 7.28572 13 7.28416V7.28416ZM18.1415 7.88423C18.5716 7.99034 18.9847 8.10606 19.3729 8.23288C19.2851 8.63958 19.1775 9.05515 19.0558 9.47442C18.9161 9.20674 18.781 8.93795 18.6304 8.67063C18.4752 8.39778 18.3033 8.1508 18.1415 7.88607V7.88423ZM7.85633 7.88644C7.69528 8.15006 7.52411 8.39667 7.36956 8.67063C7.21897 8.93795 7.08356 9.20637 6.94417 9.47442C6.82247 9.05441 6.71306 8.63884 6.62495 8.23103C7.02036 8.10495 7.43239 7.99145 7.85633 7.88829V7.88644ZM4.84106 8.94349C5.08463 9.9836 5.40291 11.0039 5.79331 11.996C5.40406 12.9861 5.08651 14.0043 4.84322 15.0421C2.95678 14.1112 1.89583 12.9499 1.89583 12C1.89583 11.0251 2.92717 9.91403 4.65508 9.03001C4.71394 8.99969 4.78075 8.97492 4.84106 8.94534V8.94349ZM21.1568 8.95458C23.0432 9.88704 24.1042 11.0483 24.1042 11.9982C24.1042 12.9731 23.0728 14.0842 21.3449 14.9682C21.2861 14.9985 21.2192 15.0233 21.1589 15.0529C20.9162 14.0121 20.5986 12.9911 20.2089 11.9982C20.5971 11.0094 20.9139 9.99273 21.1568 8.95643V8.95458ZM13 9.78166C12.5715 9.78166 12.1526 9.91177 11.7963 10.1555C11.44 10.3993 11.1623 10.7457 10.9983 11.1511C10.8343 11.5564 10.7914 12.0025 10.875 12.4328C10.9586 12.8631 11.1649 13.2584 11.4679 13.5686C11.7709 13.8789 12.157 14.0902 12.5773 14.1758C12.9976 14.2614 13.4332 14.2174 13.8291 14.0495C14.2251 13.8816 14.5634 13.5973 14.8015 13.2325C15.0396 12.8677 15.1667 12.4388 15.1667 12C15.1667 11.4117 14.9384 10.8474 14.5321 10.4314C14.1257 10.0154 13.5746 9.78166 13 9.78166ZM6.94417 14.5238C7.08392 14.7918 7.22114 15.0602 7.37172 15.3276C7.52664 15.6023 7.69672 15.8496 7.8585 16.114C7.42842 16.0079 7.01531 15.8921 6.62711 15.7653C6.71667 15.3579 6.82247 14.9434 6.94417 14.5238ZM19.0558 14.526C19.1775 14.9456 19.2873 15.3597 19.3751 15.7675C18.9778 15.8955 18.5676 16.0086 18.1437 16.1118C18.3047 15.8481 18.4759 15.6015 18.6304 15.3276C18.7807 15.061 18.9164 14.7933 19.0558 14.526V14.526ZM6.33714 17.7056C7.3453 18.0121 8.37428 18.2416 9.41561 18.3922C10.054 19.2276 10.7514 20.0139 11.5021 20.7448C10.2863 21.5989 9.16644 22.0599 8.31964 22.0599C8.01556 22.0696 7.71452 21.9955 7.44792 21.8455C6.6235 21.3585 6.19992 19.8859 6.31583 17.9134C6.31944 17.8465 6.33172 17.7748 6.33714 17.7064V17.7056ZM19.6621 17.7056C19.6676 17.774 19.6795 17.8458 19.6834 17.9134C19.7994 19.8878 19.3758 21.3574 18.5514 21.8455C18.2848 21.9957 17.9837 22.0697 17.6796 22.0599C16.8328 22.0599 15.713 21.5989 14.4972 20.7448C15.2486 20.0139 15.9467 19.2276 16.5858 18.3922C17.6266 18.2417 18.6551 18.0125 19.6629 17.7064L19.6621 17.7056ZM12.1189 18.63C12.4114 18.6399 12.7021 18.6536 12.9993 18.6536C13.2965 18.6536 13.5872 18.6399 13.8797 18.63C13.5846 18.9464 13.2929 19.2356 12.9993 19.5095C12.7064 19.2371 12.4146 18.9479 12.1196 18.6314L12.1189 18.63Z" fill="#F6F4E6"/>
</svg>
