<svg viewBox="0 0 26 26" fill="none" xmlns="http://www.w3.org/2000/svg">
<path d="M25.381 0H0.619048C0.454866 0 0.297409 0.0652209 0.181315 0.181315C0.0652209 0.297409 0 0.454866 0 0.619048V25.381C0 25.5451 0.0652209 25.7026 0.181315 25.8187C0.297409 25.9348 0.454866 26 0.619048 26H25.381C25.5451 26 25.7026 25.9348 25.8187 25.8187C25.9348 25.7026 26 25.5451 26 25.381V0.619048C26 0.454866 25.9348 0.297409 25.8187 0.181315C25.7026 0.0652209 25.5451 0 25.381 0ZM15.4762 13.8945H12.381V23.5238H9.90476V13.8945H6.80952V11.7619H15.4762V13.8945ZM16.1701 22.9741V20.4001C17.0782 21.0443 18.1531 21.4123 19.2654 21.4599C20.9523 21.4599 20.8873 20.3568 20.8873 20.2057C20.8873 18.6049 16.1076 18.6049 16.1076 15.0583C16.1076 10.2353 23.0719 12.1383 23.0719 12.1383L22.9852 14.4288C22.2378 13.9576 21.3806 13.6892 20.4979 13.65C19.1787 13.65 18.7027 14.2771 18.7027 14.95C18.7027 16.6833 23.5257 16.5075 23.5257 19.9897C23.5238 25.3531 16.1701 22.9741 16.1701 22.9741Z" fill="#F6F4E6"/>
</svg>
