<svg viewBox="0 0 26 38" fill="none" xmlns="http://www.w3.org/2000/svg">
<path d="M6.1308 38C4.52182 38 2.97874 37.3908 1.84102 36.3063C0.703298 35.2219 0.0641333 33.751 0.0641333 32.2174C0.0641333 30.6837 0.703298 29.2129 1.84102 28.1285C2.97874 27.044 4.52182 26.4348 6.1308 26.4348H10.4641C10.9238 26.4348 11.3647 26.6088 11.6898 26.9187C12.0148 27.2285 12.1975 27.6488 12.1975 28.087V32.2174C12.1975 33.751 11.5583 35.2219 10.4206 36.3063C9.28286 37.3908 7.73978 38 6.1308 38Z" fill="#F6F4E6"/>
<path d="M19.9333 11.5652H15.6C15.1403 11.5652 14.6994 11.3911 14.3743 11.0813C14.0493 10.7715 13.8667 10.3512 13.8667 9.91304V1.65217C13.8667 1.21399 14.0493 0.793753 14.3743 0.483911C14.6994 0.174068 15.1403 0 15.6 0H19.9333C21.5423 0 23.0854 0.609237 24.2231 1.69369C25.3608 2.77814 26 4.24897 26 5.78261C26 7.31625 25.3608 8.78708 24.2231 9.87153C23.0854 10.956 21.5423 11.5652 19.9333 11.5652Z" fill="#F6F4E6"/>
<path d="M6.06667 11.5652H10.4C10.8597 11.5652 11.3006 11.3911 11.6257 11.0813C11.9507 10.7715 12.1333 10.3512 12.1333 9.91304V1.65217C12.1333 1.21399 11.9507 0.793753 11.6257 0.483911C11.3006 0.174068 10.8597 0 10.4 0H6.06667C4.45769 0 2.91461 0.609237 1.77689 1.69369C0.639165 2.77814 0 4.24897 0 5.78261C0 7.31625 0.639165 8.78708 1.77689 9.87153C2.91461 10.956 4.45769 11.5652 6.06667 11.5652Z" fill="#F6F4E6"/>
<path d="M6.06667 24.7826H10.4C10.8597 24.7826 11.3006 24.6085 11.6257 24.2987C11.9507 23.9889 12.1333 23.5686 12.1333 23.1304V14.8696C12.1333 14.4314 11.9507 14.0111 11.6257 13.7013C11.3006 13.3915 10.8597 13.2174 10.4 13.2174H6.06667C4.45769 13.2174 2.91461 13.8266 1.77689 14.9111C0.639165 15.9955 0 17.4664 0 19C0 20.5336 0.639165 22.0045 1.77689 23.0889C2.91461 24.1734 4.45769 24.7826 6.06667 24.7826Z" fill="#F6F4E6"/>
<path d="M19.0667 23.1304C21.9385 23.1304 24.2667 20.9113 24.2667 18.1739C24.2667 15.4365 21.9385 13.2174 19.0667 13.2174C16.1948 13.2174 13.8667 15.4365 13.8667 18.1739C13.8667 20.9113 16.1948 23.1304 19.0667 23.1304Z" fill="#F6F4E6"/>
</svg>
