<svg viewBox="0 0 22 22" fill="none" xmlns="http://www.w3.org/2000/svg">
<path d="M3.92612 3.92618C4.41427 3.43802 5.20573 3.43802 5.69389 3.92618L18.0683 16.3005C18.5564 16.7887 18.5564 17.5802 18.0683 18.0683C17.5801 18.5565 16.7886 18.5565 16.3005 18.0683L3.92612 5.69395C3.43796 5.20579 3.43796 4.41433 3.92612 3.92618Z" fill="#F6F4E6"/>
<path d="M3.92611 18.0683C3.43796 17.5802 3.43796 16.7887 3.92611 16.3005L16.3005 3.92618C16.7886 3.43802 17.5801 3.43802 18.0682 3.92618C18.5564 4.41433 18.5564 5.20579 18.0682 5.69394L5.69388 18.0683C5.20573 18.5565 4.41427 18.5565 3.92611 18.0683Z" fill="#F6F4E6"/>
</svg>
