<svg viewBox="0 0 26 28" xmlns="http://www.w3.org/2000/svg">
<path d="M25.8336 0.197218C25.7742 0.134977 25.702 0.0853002 25.6216 0.0513471C25.5412 0.017394 25.4543 -9.23583e-05 25.3664 3.66848e-07H0.632922C0.545081 -9.23583e-05 0.458182 0.017394 0.377751 0.0513471C0.29732 0.0853002 0.225118 0.134977 0.165738 0.197218C0.10588 0.259459 0.0604292 0.333198 0.0323853 0.41357C0.00434145 0.493941 -0.00565805 0.579118 0.00304667 0.663478L2.23071 24.6619C2.24187 24.7848 2.29162 24.9016 2.37336 24.9967C2.45509 25.0918 2.56496 25.1608 2.6884 25.1945L12.8246 27.9762C12.8807 27.9925 12.9389 28.0005 12.9975 28C13.056 28.0004 13.1142 27.9924 13.1703 27.9762L23.3141 25.1945C23.437 25.1599 23.5463 25.0906 23.6279 24.9957C23.7095 24.9008 23.7596 24.7845 23.7718 24.6619L25.9969 0.663478C26.0057 0.579067 25.9956 0.493833 25.9675 0.413441C25.9393 0.333049 25.8937 0.259342 25.8336 0.197218ZM20.5003 8.47182H8.59087L8.8751 11.5701H20.2129L19.3627 20.7267L12.9949 22.5765L12.9316 22.5576L6.63857 20.7242L6.29483 16.9935H9.37837L9.51194 18.4416L13.031 19.1502L16.4868 18.4435L16.8552 14.5247H6.06631L5.22816 5.51173H20.7744L20.5003 8.47182Z"/>
</svg>
