<svg viewBox="0 0 26 26" fill="none" xmlns="http://www.w3.org/2000/svg">
<path d="M13 0C10.4288 0 7.91543 0.762437 5.77759 2.19089C3.63975 3.61935 1.97351 5.64968 0.989572 8.02511C0.00563276 10.4006 -0.251811 13.0144 0.249797 15.5362C0.751405 18.0579 1.98953 20.3743 3.80762 22.1924C5.6257 24.0105 7.94208 25.2486 10.4638 25.7502C12.9856 26.2518 15.5994 25.9944 17.9749 25.0104C20.3503 24.0265 22.3806 22.3602 23.8091 20.2224C25.2376 18.0846 26 15.5712 26 13C25.9961 9.55338 24.6252 6.24904 22.1881 3.81191C19.751 1.37478 16.4466 0.00388959 13 0ZM16.1924 3.95652C18.3532 3.92035 20.1347 4.70713 20.5067 6.16765C21.0397 8.25896 19.2259 10.7561 16.9034 11.6542C15.4896 12.2706 13.9177 12.4262 12.4105 12.099C12.1188 12.0189 11.846 11.8812 11.6083 11.694C11.3706 11.5069 11.1727 11.2741 11.0263 11.0093C10.9816 10.8923 10.9036 10.6979 11.0263 10.63C11.1014 10.5882 11.1308 10.5978 11.332 10.82C11.5237 11.0308 12.2929 11.5971 13.7529 11.4332C17.5867 11.0037 19.8951 8.02439 19.1654 6.42143C18.6567 5.29948 15.7 4.79417 12.0086 6.63339C7.50213 8.879 7.26079 10.7301 7.21953 11.4332C7.11383 13.368 9.6087 14.3853 10.9545 15.8261C10.9861 15.86 11.0167 15.8945 11.0472 15.929C11.6525 15.7419 12.2847 15.6563 12.918 15.6757C15.0987 15.6384 16.3308 17.0752 16.28 18.3605C16.259 18.6905 16.1387 19.0063 15.9349 19.2667C15.7312 19.527 15.4534 19.7197 15.1382 19.8193C15.0127 19.8408 14.9438 19.8448 14.9263 19.7464C14.9138 19.6786 14.9596 19.647 15.1066 19.5554C15.2784 19.4552 15.4266 19.3191 15.541 19.1564C15.6555 18.9937 15.7334 18.8082 15.7696 18.6126C15.8481 18.0643 15.4378 16.753 13.3391 16.5083C12.7274 16.4255 12.1055 16.4612 11.5073 16.6134C11.7289 17.2137 11.8078 17.8573 11.7379 18.4934C11.6679 19.1294 11.451 19.7405 11.1043 20.2783C10.684 20.9408 10.0671 21.4552 9.33989 21.7498C8.61272 22.0443 7.81167 22.1041 7.04883 21.9208C6.54013 21.7795 5.77314 20.731 6.435 19.2683C7.0624 17.8818 9.74209 16.5253 10.1089 16.345V16.3382C8.86544 15.2693 5.84718 13.8286 5.42157 11.6243C5.30061 10.9997 5.59114 9.50356 7.42922 7.78587C9.08975 6.33808 11.0195 5.23196 13.108 4.53078C14.0986 4.17487 15.14 3.98096 16.1924 3.95652ZM10.6261 16.9972L10.5164 17.0571V17.0617C9.73537 17.4461 9.02154 17.9542 8.40253 18.5663C7.59653 19.418 7.3727 20.488 7.82205 20.7474C8.23861 20.9888 9.20852 20.7028 9.90374 19.9448C10.1265 19.7045 10.3129 19.433 10.4571 19.1388C10.4848 19.0823 10.5136 19.0258 10.5345 18.9647C10.5554 18.9037 10.5809 18.846 10.6007 18.7856C10.7868 18.2052 10.7957 17.5826 10.6261 16.9972Z" fill="#F6F4E6"/>
</svg>
