<svg viewBox="0 0 30 30" fill="none" xmlns="http://www.w3.org/2000/svg">
<path fill-rule="evenodd" clip-rule="evenodd" d="M14.9968 5.07331e-07C11.4354 0.000373597 7.99023 1.30043 5.27797 3.66751C2.5657 6.0346 0.763309 9.31423 0.193344 12.9195C-0.376621 16.5248 0.323035 20.2204 2.16711 23.345C4.01118 26.4697 6.87931 28.8194 10.2583 29.9737C11.0077 30.1144 11.2811 29.6395 11.2811 29.2316C11.2811 28.8672 11.2682 27.8994 11.2608 26.6163C7.08936 27.5454 6.20922 24.5543 6.20922 24.5543C5.93348 23.6247 5.34279 22.8267 4.54376 22.3044C3.18212 21.3508 4.64687 21.3697 4.64687 21.3697C5.12304 21.4363 5.57804 21.6138 5.97699 21.8885C6.37594 22.1633 6.70827 22.5281 6.94851 22.9549C7.15177 23.3343 7.42633 23.6686 7.75631 23.9385C8.08629 24.2084 8.46515 24.4085 8.87101 24.5274C9.27686 24.6463 9.70166 24.6815 10.1209 24.631C10.5401 24.5805 10.9454 24.4453 11.3133 24.2333C11.3817 23.4535 11.7193 22.7243 12.2653 22.177C8.93159 21.7889 5.43311 20.469 5.43311 14.5757C5.41174 13.0477 5.9646 11.57 6.97705 10.4488C6.51995 9.1222 6.57262 7.66686 7.12435 6.37863C7.12435 6.37863 8.3838 5.96509 11.248 7.95534C13.7058 7.26423 16.2998 7.26423 18.7577 7.95534C21.62 5.96509 22.8776 6.37863 22.8776 6.37863C23.4305 7.66648 23.4838 9.12205 23.0268 10.4488C24.0394 11.5697 24.5914 13.0479 24.5679 14.5757C24.5679 20.4841 21.0621 21.7842 17.7211 22.1647C18.0789 22.5376 18.3549 22.9847 18.5306 23.476C18.7062 23.9673 18.7773 24.4914 18.7393 25.0132C18.7393 27.0686 18.7209 28.7274 18.7209 29.2316C18.7209 29.6432 18.9906 30.1219 19.752 29.9718C23.1298 28.8149 25.996 26.4634 27.8379 23.3377C29.6798 20.2121 30.3772 16.5164 29.8053 12.9118C29.2334 9.30712 27.4295 6.02875 24.7164 3.66315C22.0033 1.29755 18.558 -0.000937023 14.9968 5.07331e-07Z" fill="#F6F4E6"/>
</svg>
