<svg viewBox="0 0 22 22" fill="none" xmlns="http://www.w3.org/2000/svg">
<path d="M17.1112 11C17.1112 14.3751 14.3751 17.1111 11 17.1111C7.62497 17.1111 4.88893 14.3751 4.88893 11C4.88893 7.62495 7.62497 4.88892 11 4.88892C14.3751 4.88892 17.1112 7.62495 17.1112 11Z" fill="#F6F4E6"/>
<path d="M3.66667 11C3.66667 11.675 2.84586 12.2223 1.83333 12.2223C0.820811 12.2223 0 11.675 0 11C0 10.325 0.820811 9.77781 1.83333 9.77781C2.84586 9.77781 3.66667 10.325 3.66667 11Z" fill="#F6F4E6"/>
<path d="M22 11.0001C22 11.6751 21.1792 12.2223 20.1667 12.2223C19.1542 12.2223 18.3333 11.6751 18.3333 11.0001C18.3333 10.325 19.1542 9.77783 20.1667 9.77783C21.1792 9.77783 22 10.325 22 11.0001Z" fill="#F6F4E6"/>
<path d="M12.2222 20.1666C12.2222 21.1791 11.675 21.9999 11 21.9999C10.325 21.9999 9.77779 21.1791 9.77779 20.1666C9.77779 19.1541 10.325 18.3333 11 18.3333C11.675 18.3333 12.2222 19.1541 12.2222 20.1666Z" fill="#F6F4E6"/>
<path d="M12.2222 1.83333C12.2222 2.84586 11.675 3.66667 11 3.66667C10.325 3.66667 9.77779 2.84586 9.77779 1.83333C9.77779 0.820811 10.325 0 11 0C11.675 0 12.2222 0.820811 12.2222 1.83333Z" fill="#F6F4E6"/>
<path d="M5.88235 5.74749C5.40505 6.2248 4.43771 6.03133 3.72175 5.31537C3.00579 4.59941 2.81232 3.63208 3.28963 3.15477C3.76694 2.67746 4.73427 2.87093 5.45023 3.58689C6.16619 4.30285 6.35966 5.27019 5.88235 5.74749Z" fill="#F6F4E6"/>
<path d="M18.7104 18.8451C18.2331 19.3225 17.2657 19.129 16.5498 18.413C15.8338 17.6971 15.6403 16.7297 16.1176 16.2524C16.595 15.7751 17.5623 15.9686 18.2782 16.6845C18.9942 17.4005 19.1877 18.3678 18.7104 18.8451Z" fill="#F6F4E6"/>
<path d="M5.31531 18.2784C4.59935 18.9943 3.63202 19.1878 3.15471 18.7105C2.6774 18.2332 2.87087 17.2659 3.58683 16.5499C4.30279 15.8339 5.27013 15.6405 5.74744 16.1178C6.22474 16.5951 6.03128 17.5624 5.31531 18.2784Z" fill="#F6F4E6"/>
<path d="M18.4132 5.45014C17.6972 6.1661 16.7299 6.35957 16.2526 5.88226C15.7752 5.40495 15.9687 4.43762 16.6847 3.72166C17.4006 3.00569 18.368 2.81223 18.8453 3.28953C19.3226 3.76684 19.1291 4.73418 18.4132 5.45014Z" fill="#F6F4E6"/>
</svg>
