<svg viewBox="0 0 40 40" xmlns="http://www.w3.org/2000/svg">
<path d="M20 0C23.9556 0 27.8224 1.17298 31.1114 3.37061C34.4004 5.56824 36.9638 8.69181 38.4776 12.3463C39.9913 16.0009 40.3874 20.0222 39.6157 23.9018C38.844 27.7814 36.9392 31.3451 34.1421 34.1421C31.3451 36.9392 27.7814 38.844 23.9018 39.6157C20.0222 40.3874 16.0009 39.9913 12.3463 38.4776C8.69181 36.9638 5.56824 34.4004 3.37061 31.1114C1.17298 27.8224 0 23.9556 0 20C0 14.6957 2.10714 9.60859 5.85786 5.85786C9.60859 2.10714 14.6957 0 20 0V0ZM26.8991 28.1522C27.267 27.0217 28.9861 15.7748 29.2035 13.5583C29.2647 13.3074 29.2428 13.0434 29.1412 12.8061C29.0396 12.5687 28.8637 12.3706 28.64 12.2417C27.9374 12.0395 27.1846 12.1074 26.5296 12.4322C25.3452 12.8591 10.2043 19.2878 9.32957 19.66C8.5 20.0078 7.71565 20.3965 7.71565 20.953C7.71565 21.3443 7.94783 21.5617 8.58522 21.793C9.2513 22.0304 10.933 22.5391 11.9191 22.8122C12.814 23.0399 13.7621 22.9154 14.5678 22.4643C15.213 22.0635 22.6591 17.0809 23.1939 16.6443C23.7287 16.2078 24.1504 16.767 23.7157 17.2043C23.2809 17.6417 18.1678 22.6017 17.4939 23.2913C17.347 23.4313 17.236 23.6047 17.1704 23.7968C17.1048 23.9889 17.0865 24.1939 17.1171 24.3946C17.1476 24.5952 17.2262 24.7855 17.3459 24.9493C17.4657 25.1132 17.6233 25.2457 17.8052 25.3357C18.4322 25.7304 22.9409 28.7548 23.62 29.24C24.1963 29.6788 24.8959 29.9255 25.62 29.9452C26.253 29.947 26.5852 29.1165 26.8991 28.1522Z"/>
</svg>
