<svg viewBox="0 0 26 26" xmlns="http://www.w3.org/2000/svg">
<path fill-rule="evenodd" clip-rule="evenodd" d="M0 6.5C0 4.77609 0.684819 3.12279 1.90381 1.90381C3.12279 0.684819 4.77609 0 6.5 0H19.5C21.2239 0 22.8772 0.684819 24.0962 1.90381C25.3152 3.12279 26 4.77609 26 6.5V19.5C26 21.2239 25.3152 22.8772 24.0962 24.0962C22.8772 25.3152 21.2239 26 19.5 26H6.5C4.77609 26 3.12279 25.3152 1.90381 24.0962C0.684819 22.8772 0 21.2239 0 19.5V6.5ZM6.5 2.6C5.46566 2.6 4.47368 3.01089 3.74228 3.74228C3.01089 4.47368 2.6 5.46566 2.6 6.5V19.5C2.6 20.5343 3.01089 21.5263 3.74228 22.2577C4.47368 22.9891 5.46566 23.4 6.5 23.4H19.5C20.5343 23.4 21.5263 22.9891 22.2577 22.2577C22.9891 21.5263 23.4 20.5343 23.4 19.5V6.5C23.4 5.46566 22.9891 4.47368 22.2577 3.74228C21.5263 3.01089 20.5343 2.6 19.5 2.6H6.5ZM6.5 19.5C6.5 19.1552 6.63696 18.8246 6.88076 18.5808C7.12456 18.337 7.45522 18.2 7.8 18.2H18.2C18.5448 18.2 18.8754 18.337 19.1192 18.5808C19.363 18.8246 19.5 19.1552 19.5 19.5C19.5 19.8448 19.363 20.1754 19.1192 20.4192C18.8754 20.663 18.5448 20.8 18.2 20.8H7.8C7.45522 20.8 7.12456 20.663 6.88076 20.4192C6.63696 20.1754 6.5 19.8448 6.5 19.5ZM8.7191 6.8809C8.47392 6.64409 8.14553 6.51306 7.80468 6.51602C7.46382 6.51899 7.13777 6.6557 6.89674 6.89674C6.6557 7.13777 6.51899 7.46382 6.51602 7.80468C6.51306 8.14553 6.64409 8.47392 6.8809 8.7191L9.8618 11.7L6.8809 14.6809C6.64409 14.9261 6.51306 15.2545 6.51602 15.5953C6.51899 15.9362 6.6557 16.2622 6.89674 16.5033C7.13777 16.7443 7.46382 16.881 7.80468 16.884C8.14553 16.8869 8.47392 16.7559 8.7191 16.5191L12.6191 12.6191C12.8628 12.3753 12.9997 12.0447 12.9997 11.7C12.9997 11.3553 12.8628 11.0247 12.6191 10.7809L8.7191 6.8809Z"/>
</svg>
