<svg viewBox="0 0 38 21" fill="none" xmlns="http://www.w3.org/2000/svg">
<path d="M0 0.502913V20.4971H3.72419V7.38058L12.1036 20.4971H15.6815V0.502913H11.9573V13.6602L3.56458 0.502913H0Z" fill="#F6F4E6"/>
<path d="M30.4053 3.22136C29.3679 1.99806 28.4102 1.15534 27.5324 0.693204C26.6545 0.231068 25.7235 0 24.7525 0C23.2363 0 21.9594 0.502913 20.9219 1.49515C19.8845 2.48738 19.3791 3.6699 19.3791 5.05631C19.3791 6.02136 19.685 6.98641 20.3101 7.95146C20.9219 8.9165 22.3052 10.2893 24.4333 12.0563C25.5506 12.9942 26.2688 13.6874 26.6013 14.1359C26.9205 14.5981 27.0935 15.0466 27.0935 15.4951C27.0935 15.9981 26.8673 16.433 26.4417 16.8136C26.0028 17.1942 25.4708 17.3845 24.8323 17.3845C23.6087 17.3845 22.518 16.501 21.587 14.734L18.4613 16.6641C19.1929 18.1592 20.0707 19.2602 21.1082 19.9534C22.1456 20.6602 23.356 21 24.7525 21C26.5348 21 27.9713 20.4699 29.0886 19.3961C30.1925 18.3359 30.7511 16.9767 30.7511 15.332C30.7511 14.4893 30.5915 13.7146 30.2723 13.0078C29.9531 12.301 29.4211 11.5534 28.6762 10.765C28.3703 10.4524 27.5058 9.69126 26.0959 8.46796C24.5796 7.16311 23.6619 6.3068 23.3693 5.89903C23.1432 5.6 23.0368 5.28738 23.0368 4.94757C23.0368 4.62136 23.1831 4.32233 23.5023 4.05049C23.8082 3.77864 24.2072 3.64272 24.6993 3.64272C25.6969 3.64272 26.6811 4.33592 27.6521 5.70874L30.4053 3.22136Z" fill="#F6F4E6"/>
<path d="M35.9118 16.6233C35.3266 16.6233 34.8344 16.8408 34.4354 17.2485C34.0231 17.6563 33.8236 18.1592 33.8236 18.7437C33.8236 19.3417 34.0231 19.8447 34.4354 20.2524C34.8344 20.6738 35.3266 20.8777 35.9118 20.8777C36.4837 20.8777 36.9758 20.6738 37.3882 20.2524C37.7872 19.8447 38 19.3417 38 18.7437C38 18.1592 37.7872 17.6563 37.3882 17.2485C36.9758 16.8408 36.4837 16.6233 35.9118 16.6233Z" fill="#F6F4E6"/>
</svg>
