<svg xmlns="http://www.w3.org/2000/svg" viewBox="0 0 26 26"><path d="M25.381 0H.619A.619.619 0 000 .619v24.762A.62.62 0 00.619 26h24.762a.62.62 0 00.619-.619V.619A.619.619 0 0025.381 0zm-9.905 13.895h-3.095v9.629H9.905v-9.63H6.81v-2.132h8.666v2.133zm.694 9.08V20.4a5.777 5.777 0 003.095 1.06c1.687 0 1.622-1.103 1.622-1.254 0-1.601-4.78-1.601-4.78-5.148 0-4.823 6.965-2.92 6.965-2.92l-.087 2.29a5.087 5.087 0 00-2.487-.778c-1.32 0-1.795.627-1.795 1.3 0 1.733 4.823 1.558 4.823 5.04-.002 5.363-7.356 2.984-7.356 2.984z"/></svg>