<svg xmlns="http://www.w3.org/2000/svg" viewBox="0 0 26 38"><path d="M6.13 38a6.221 6.221 0 01-4.289-1.694 5.647 5.647 0 01-1.777-4.089c0-1.533.64-3.004 1.777-4.088a6.221 6.221 0 014.29-1.694h4.333c.46 0 .9.174 1.226.484.325.31.508.73.508 1.168v4.13c0 1.534-.64 3.005-1.777 4.09A6.221 6.221 0 016.13 38zm13.803-26.435H15.6c-.46 0-.9-.174-1.226-.484a1.614 1.614 0 01-.507-1.168v-8.26c0-.439.182-.86.507-1.17A1.787 1.787 0 0115.6 0h4.333c1.61 0 3.152.61 4.29 1.694S26 4.249 26 5.783c0 1.533-.64 3.004-1.777 4.089a6.221 6.221 0 01-4.29 1.693zm-13.866 0H10.4c.46 0 .9-.174 1.226-.484.325-.31.507-.73.507-1.168v-8.26c0-.439-.182-.86-.507-1.17A1.778 1.778 0 0010.4 0H6.067c-1.61 0-3.152.61-4.29 1.694S0 4.249 0 5.783c0 1.533.64 3.004 1.777 4.089a6.221 6.221 0 004.29 1.693zm0 13.218H10.4c.46 0 .9-.175 1.226-.484.325-.31.507-.73.507-1.169v-8.26c0-.439-.182-.859-.507-1.169a1.778 1.778 0 00-1.226-.484H6.067c-1.61 0-3.152.61-4.29 1.694C.639 15.996 0 17.466 0 19c0 1.534.64 3.005 1.777 4.089a6.221 6.221 0 004.29 1.694zm13-1.653c2.872 0 5.2-2.219 5.2-4.956 0-2.737-2.328-4.957-5.2-4.957-2.872 0-5.2 2.22-5.2 4.957 0 2.737 2.328 4.956 5.2 4.956z"/></svg>