<svg xmlns="http://www.w3.org/2000/svg" viewBox="0 0 26 26"><path d="M24.35 0H1.653A1.652 1.652 0 000 1.652v22.696A1.652 1.652 0 001.652 26h22.696A1.652 1.652 0 0026 24.35V1.653A1.652 1.652 0 0024.35 0zM14.239 19.923c0 2.477-1.451 3.6-3.57 3.6a4.345 4.345 0 01-3.858-2.475l1.946-1.177a2.025 2.025 0 001.768 1.177c.786 0 1.238-.31 1.238-1.502v-7.784h2.476v8.161zm5.371 3.6a4.313 4.313 0 01-4.133-2.475l1.857-1.238c.506.827 1.057 1.617 2.223 1.617.979 0 1.492-.488 1.492-1.166 0-.804-.532-1.095-1.61-1.566l-.59-.254c-1.705-.726-2.839-1.635-2.839-3.56 0-1.77 1.352-3.12 3.46-3.12a3.491 3.491 0 013.36 1.892l-1.838 1.182a1.605 1.605 0 00-1.521-1.013 1.028 1.028 0 00-1.13 1.014c0 .708.438.993 1.452 1.433l.59.254c2.01.859 3.142 1.739 3.142 3.71 0 2.125-1.672 3.29-3.915 3.29z"/></svg>