<svg xmlns="http://www.w3.org/2000/svg" fill="none" viewBox="0 0 30 30"><path fill="#F6F4E6" fill-rule="evenodd" d="M14.997 0a14.77 14.77 0 00-9.719 3.668C2.566 6.035.763 9.314.193 12.92c-.57 3.605.13 7.3 1.974 10.425 1.844 3.125 4.712 5.474 8.091 6.629.75.14 1.023-.334 1.023-.742 0-.365-.013-1.333-.02-2.616-4.172.93-5.052-2.062-5.052-2.062a4.064 4.064 0 00-1.665-2.25c-1.362-.953.103-.934.103-.934.476.066.931.244 1.33.518.399.275.731.64.972 1.067.203.38.477.714.807.984.33.27.71.47 1.115.588a3.117 3.117 0 002.442-.294c.069-.78.406-1.509.952-2.056-3.333-.388-6.832-1.708-6.832-7.601a6.034 6.034 0 011.544-4.127 5.666 5.666 0 01.147-4.07s1.26-.414 4.124 1.576a13.86 13.86 0 017.51 0c2.862-1.99 4.12-1.576 4.12-1.576a5.66 5.66 0 01.149 4.07 6.02 6.02 0 011.54 4.127c0 5.908-3.505 7.208-6.846 7.589.358.373.634.82.81 1.311.175.491.246 1.015.208 1.537 0 2.056-.018 3.714-.018 4.219 0 .411.27.89 1.031.74 3.378-1.157 6.244-3.509 8.086-6.634a15.71 15.71 0 001.967-10.426c-.572-3.605-2.375-6.883-5.089-9.249A14.779 14.779 0 0014.996 0z" clip-rule="evenodd"/></svg>