<svg xmlns="http://www.w3.org/2000/svg" viewBox="0 0 26 29"><path d="M19.995 9.873l-6.994 4.08-6.995-4.08L13 5.987l6.994 3.886zm-6.376 5.164v7.46l6.971-3.872V10.97l-6.97 4.066zM.912 22.448L12.381 29v-5.076l-7.172-3.982-4.298 2.506zm11.47.048v-7.46L5.408 10.97v7.655l6.971 3.871zM13.62 0v4.903l7.63 4.239 4.141-2.416L13.62 0zm7.172 19.941l-7.172 3.983V29l11.47-6.552-4.298-2.507zm1.038-9.693v8.853L26 21.533V7.816l-4.17 2.432zM4.752 9.142l7.628-4.238V0L.61 6.726l4.143 2.416zm-.582 9.96v-8.854L0 7.816v13.719l4.17-2.432z"/></svg>