<svg xmlns="http://www.w3.org/2000/svg" viewBox="0 0 26 28"><path d="M25.834.197A.634.634 0 0025.366 0H.633a.655.655 0 00-.467.197.595.595 0 00-.163.466l2.228 23.999c.01.123.06.24.142.335a.636.636 0 00.315.198l10.137 2.781a.608.608 0 00.346 0l10.143-2.781a.643.643 0 00.314-.2.604.604 0 00.144-.333L25.997.663a.576.576 0 00-.163-.466zM20.5 8.472H8.59l.285 3.098h11.338l-.85 9.157-6.368 1.85-.063-.02-6.293-1.833-.344-3.73h3.083l.134 1.448 3.519.708 3.456-.706.368-3.92H6.066l-.838-9.012h15.546l-.274 2.96z"/></svg>