<svg xmlns="http://www.w3.org/2000/svg" viewBox="0 0 40 40"><path d="M20 0a20 20 0 110 40 20 20 0 010-40zm6.9 28.152c.367-1.13 2.086-12.377 2.303-14.594a1.193 1.193 0 00-.563-1.316 2.928 2.928 0 00-2.11.19c-1.185.427-16.326 6.856-17.2 7.228-.83.348-1.614.736-1.614 1.293 0 .391.232.609.87.84.665.237 2.347.746 3.333 1.02a3.603 3.603 0 002.649-.349c.645-.4 8.091-5.383 8.626-5.82.535-.436.956.123.522.56-.435.438-5.548 5.398-6.222 6.087a1.261 1.261 0 00.311 2.045c.627.394 5.136 3.419 5.815 3.904a3.457 3.457 0 002 .705c.633.002.965-.829 1.28-1.793z"/></svg>