<svg xmlns="http://www.w3.org/2000/svg" viewBox="0 0 20 20"><path fill="inherit" d="M16.365 0a1.11 1.11 0 00-.773 1.906l.607.608A11.95 11.95 0 004.44 14.448a1.11 1.11 0 102.22.03v-.03a9.695 9.695 0 019.524-9.708l-.593.593a1.112 1.112 0 101.57 1.57l2.4-2.399a1.11 1.11 0 00-.005-1.772L17.162.336A1.11 1.11 0 0016.365 0zM3.608.01A3.625 3.625 0 000 3.62v12.77A3.627 3.627 0 003.608 20h12.769a3.625 3.625 0 003.608-3.61v-4.164a1.112 1.112 0 00-2.22-.03v4.195a1.371 1.371 0 01-1.388 1.388H3.608a1.372 1.372 0 01-1.387-1.388V3.62a1.372 1.372 0 011.387-1.388h4.164A1.11 1.11 0 007.803.01H3.608z"/></svg>