<svg xmlns="http://www.w3.org/2000/svg" fill="none" viewBox="0 0 26 26"><path fill="#F6F4E6" fill-rule="evenodd" d="M2 0a2 2 0 00-2 2v22a2 2 0 002 2h22a2 2 0 002-2V2a2 2 0 00-2-2H2zm4.77 5.91c.298-.144.596-.222.892-.223.349.004.69.113.99.318h.002c.316.217.612.554.889 1.025.06.1.103.214.123.334.017.107.026.211.026.307 0 .23-.048.419-.15.557a.47.47 0 01-.16.154.405.405 0 01-.206.054c-.13 0-.253-.077-.359-.227a3.85 3.85 0 01-.339-.607v.001c-.114-.233-.236-.398-.37-.496a.708.708 0 00-.437-.145c-.248 0-.506.118-.794.362-.29.244-.572.554-.854.95a10.64 10.64 0 00-.815 1.364 14.994 14.994 0 00-.691 1.572c-.2.54-.359 1.06-.475 1.58a6.475 6.475 0 00-.174 1.396c0 .141.008.282.024.422a1.8 1.8 0 00.09.387.638.638 0 00.18.276.39.39 0 00.274.103.855.855 0 00.44-.146 3.11 3.11 0 00.529-.405A9.054 9.054 0 006.91 12.99v-.001a4.04 4.04 0 00.279-.514l.484-1.765v-.001c.063-.193.148-.336.261-.422a.488.488 0 01.5-.097.446.446 0 01.262.28c.03.08.046.167.045.255.002.44-.064.877-.194 1.291a9.168 9.168 0 01-.185.598c-.067.199-.133.408-.2.626l-.063.18-.188.53c-.056.196-.116.417-.18.661l-.197.75c-.048.16-.088.319-.129.476l-.07.273-.168.662-.126.495-.059.24v.002l-.009.027-.007.022a2.068 2.068 0 01-.223.498l-.001.001v.002a1.16 1.16 0 01-.193.224.356.356 0 01-.396.06.362.362 0 01-.13-.117c-.07-.107-.092-.277-.092-.518v-.215c0-.093.033-.235.082-.445l.003-.012c.05-.218.109-.464.183-.738.038-.153.08-.308.123-.465.035-.128.07-.258.104-.39l.172-.608a11.85 11.85 0 01-.513.59 6.6 6.6 0 01-.699.662 4.564 4.564 0 01-.734.479 1.587 1.587 0 01-.719.185c-.266 0-.492-.069-.683-.207a1.609 1.609 0 01-.473-.519 2.72 2.72 0 01-.273-.717v-.004a6.01 6.01 0 01-.067-.777v-.095a.563.563 0 01.01-.091 9.8 9.8 0 01.175-1.466 13.71 13.71 0 01.94-2.955c.218-.454.445-.902.688-1.322.244-.42.505-.81.78-1.165.26-.336.545-.643.854-.918.292-.259.587-.46.887-.605zm10.18.753a.645.645 0 01.36-.12.49.49 0 01.338.133c.105.093.159.248.159.444a1.045 1.045 0 01-.049.297v.002l-.027.077a2.916 2.916 0 01-.09.241c-.092.23-.201.513-.326.849l-.418 1.103-.127.35c-.103.287-.21.582-.316.885l-.452 1.255c-.15.406-.284.788-.409 1.153l-.33.953-.024.03a4.63 4.63 0 00-.114.385 1.543 1.543 0 00-.057.39.349.349 0 00.029.156c.013.028.036.042.088.042a.623.623 0 00.272-.088 2.8 2.8 0 00.37-.241c.132-.1.271-.216.414-.346.083-.076.167-.156.25-.235.06-.058.12-.116.181-.172a13.184 13.184 0 00.62-.66l.138-.154v.001l.002-.003-.002.002a.29.29 0 01.119-.088.274.274 0 01.036-.014c.047-.164.091-.326.132-.485v-.001l.117-.379c.05-.164.11-.324.178-.48.063-.15.14-.29.231-.418.088-.12.192-.19.3-.19.156 0 .275.038.352.129h.001a.577.577 0 01.111.374c0 .033-.002.08-.011.149a3.427 3.427 0 01-.03.208l-.032.176a5.167 5.167 0 01.832-.829c.164-.132.34-.244.526-.332.29-.144.614-.17.918-.073.121.041.235.101.331.181a.887.887 0 01.338.727c0 .211-.049.433-.138.667-.092.233-.202.47-.343.7a7.636 7.636 0 01-.442.683l-.063.087c-.134.185-.257.356-.38.513l-.35.466a1.45 1.45 0 00-.104.152.237.237 0 00-.03.075.147.147 0 00.038.108c.02.023.068.043.136.043.05 0 .139-.038.255-.117.175-.125.344-.262.505-.41l.052-.048c.21-.193.472-.435.78-.741.326-.32.736-.726 1.21-1.207-.005-.016-.021-.03-.036-.044-.027-.023-.05-.043.009-.064.054-.041.103-.075.15-.101a.294.294 0 01.144-.043c.045 0 .089.013.127.039.039.026.07.064.091.109a.69.69 0 01.072.324c0 .135-.026.272-.078.41a.85.85 0 01-.23.353 42.68 42.68 0 00-1.043 1.08c-.309.327-.595.608-.872.844-.277.24-.548.423-.81.557a1.83 1.83 0 01-.855.204c-.28 0-.507-.068-.668-.22-.16-.141-.242-.35-.242-.607v-.057c0-.017.002-.023.004-.03l.002-.005a.231.231 0 00.002-.014l.001-.008v-.007a1.65 1.65 0 01.18-.53v-.001c.111-.21.232-.41.363-.604.143-.209.294-.418.453-.628l.26-.35.183-.248c.132-.189.24-.36.331-.52a.752.752 0 00.127-.354.152.152 0 00-.009-.056.136.136 0 00-.028-.047.276.276 0 00-.157-.039.908.908 0 00-.439.128 2.36 2.36 0 00-.458.346c-.15.15-.299.31-.44.498-.142.188-.274.385-.408.586-.124.208-.24.406-.349.613v.001c-.1.208-.19.397-.265.567h-.001l-.091.227-.125.342-.151.38-.142.37-.117.314c-.031.09-.056.146-.073.184l-.002.005-.026.081c-.015.046-.033.105-.058.175l-.15.436-.174.522-.31.95a2.518 2.518 0 00-.074.243v.004l-.002.004a4.243 4.243 0 01-.135.366 1.578 1.578 0 01-.175.308.874.874 0 01-.231.22l-.001.001a.596.596 0 01-.295.08.54.54 0 01-.35-.115c-.1-.08-.152-.24-.152-.447 0-.098.01-.206.036-.316.016-.1.046-.191.076-.284l.007-.022c.018-.077.044-.146.07-.212l.031-.087a4.29 4.29 0 00.092-.278v-.002l.002-.003c.161-.417.332-.833.505-1.253l.097-.237c.204-.5.4-.988.593-1.472l.078-.205v-.001l.044-.113-.01.009a8.184 8.184 0 01-.714.697 3.884 3.884 0 01-.709.48h-.001c-.239.117-.47.176-.693.176a.785.785 0 01-.396-.091.783.783 0 01-.256-.24l-.001-.002a1.076 1.076 0 01-.133-.35l-.005-.037-.02.018c-.049.042-.097.084-.147.123a3.927 3.927 0 01-.678.447 1.38 1.38 0 01-.61.17.548.548 0 01-.25-.052.614.614 0 01-.21-.162c-.123-.147-.178-.387-.178-.718 0-.177.033-.394.068-.614l-.013.023c-.075.135-.151.272-.25.404a3.28 3.28 0 01-.497.549 2.308 2.308 0 01-.628.396 1.944 1.944 0 01-.758.155c-.123 0-.245-.019-.36-.06a.76.76 0 01-.318-.19 1.09 1.09 0 01-.219-.358v-.002a1.657 1.657 0 01-.079-.55v-.002l.018-.231v-.001c.032-.238.08-.472.143-.7.084-.316.2-.726.368-1.23.209-.618.44-1.225.695-1.82.078-.194.165-.335.281-.426a.54.54 0 01.248-.123.505.505 0 01.27.02c.06.015.118.044.168.085a.512.512 0 01.127.153v.002c.033.066.05.14.048.215a.67.67 0 01-.019.145v.003a2.451 2.451 0 01-.12.33l-.217.47v.001c-.058.118-.116.245-.177.38l-.082.18c-.09.202-.175.416-.25.626a9.61 9.61 0 00-.198.66c-.058.225-.09.44-.099.644a.528.528 0 00.046.226c.025.058.074.088.147.088.224 0 .449-.082.66-.257.214-.176.412-.395.594-.655a6.77 6.77 0 00.497-.85c.15-.302.267-.576.367-.827.067-.167.133-.345.182-.535.047-.184.106-.364.177-.537.054-.153.13-.295.223-.42a.424.424 0 01.148-.135.369.369 0 01.185-.045.377.377 0 01.192.048c.06.033.112.082.151.142.084.126.128.28.126.438a1.28 1.28 0 01-.078.377l-.014.042c-.047.143-.102.31-.17.492l-.244.645c-.089.226-.17.457-.241.69a8.17 8.17 0 00-.191.684c-.05.225-.074.43-.074.616 0 .082.019.133.05.166.03.033.079.053.15.053.11 0 .246-.036.408-.13h.002c.164-.083.336-.204.518-.365.078-.068.153-.14.227-.215a5.29 5.29 0 01.155-.551l.152-.447c.08-.235.158-.469.241-.702l.367-1.046 1.663-4.762a.851.851 0 01.28-.43l.001-.002z" clip-rule="evenodd"/></svg>