<svg xmlns="http://www.w3.org/2000/svg" viewBox="0 0 26 26"><path d="M13 0a13 13 0 1013 13A13.015 13.015 0 0013 0zm3.192 3.957c2.161-.037 3.943.75 4.315 2.21.533 2.092-1.281 4.59-3.604 5.487a7.344 7.344 0 01-4.492.445 2.267 2.267 0 01-1.385-1.09c-.044-.117-.122-.311 0-.379.075-.042.105-.032.306.19.192.21.96.777 2.42.613 3.835-.43 6.143-3.409 5.413-5.012-.508-1.122-3.465-1.627-7.156.212-4.507 2.246-4.748 4.097-4.79 4.8-.105 1.935 2.39 2.952 3.735 4.393l.093.103a5.74 5.74 0 011.871-.253c2.18-.038 3.413 1.4 3.362 2.684a1.64 1.64 0 01-1.142 1.46c-.125.02-.194.025-.212-.074-.012-.067.034-.099.18-.19a1.383 1.383 0 00.664-.943c.078-.549-.332-1.86-2.43-2.105a4.812 4.812 0 00-1.833.105 4.127 4.127 0 01-.403 3.665 3.762 3.762 0 01-4.055 1.643c-.509-.142-1.276-1.19-.614-2.653.627-1.386 3.307-2.743 3.674-2.923v-.007c-1.244-1.069-4.262-2.51-4.687-4.714-.121-.624.17-2.12 2.007-3.838a16.757 16.757 0 015.679-3.255 9.794 9.794 0 013.084-.574zm-5.566 13.04l-.11.06v.005a8.082 8.082 0 00-2.113 1.504c-.806.852-1.03 1.922-.581 2.181.417.242 1.387-.044 2.082-.802.223-.24.409-.512.553-.806.028-.057.057-.113.077-.174.021-.061.047-.119.067-.18a3.06 3.06 0 00.025-1.788z"/></svg>