<svg xmlns="http://www.w3.org/2000/svg" fill="none" viewBox="0 0 40 40"><path fill="#F6F4E6" d="M20.96 22l7.84-6.24v8.88c0 .642-.64 1.2-1.44 1.2H12.64c-.8 0-1.44-.558-1.44-1.2v-8.88L18.96 22c.24.24.64.318 1.04.318.318 0 .718-.077.96-.318zm5.758-7.84H13.282l6.636 5.358 6.8-5.359zM40 20c0 11.04-8.96 20-20 20S0 31.04 0 20 8.96 0 20 0s20 8.96 20 20zm-8.24-5.84c0-1.282-1.283-2.32-2.96-2.32H11.2c-1.6 0-2.96 1.042-2.96 2.32v11.68c0 1.282 1.282 2.32 2.96 2.32h17.6c1.6 0 2.96-1.042 2.96-2.32V14.16z"/></svg>