<svg xmlns="http://www.w3.org/2000/svg" viewBox="0 0 26 26"><path fill-rule="evenodd" d="M0 6.5A6.5 6.5 0 016.5 0h13A6.5 6.5 0 0126 6.5v13a6.5 6.5 0 01-6.5 6.5h-13A6.5 6.5 0 010 19.5v-13zm6.5-3.9a3.9 3.9 0 00-3.9 3.9v13a3.9 3.9 0 003.9 3.9h13a3.9 3.9 0 003.9-3.9v-13a3.9 3.9 0 00-3.9-3.9h-13zm0 16.9a1.3 1.3 0 011.3-1.3h10.4a1.3 1.3 0 010 2.6H7.8a1.3 1.3 0 01-1.3-1.3zM8.72 6.88a1.3 1.3 0 00-1.84 1.84l2.982 2.98-2.981 2.98a1.3 1.3 0 001.838 1.84l3.9-3.9a1.3 1.3 0 000-1.84l-3.9-3.9z" clip-rule="evenodd"/></svg>