<svg xmlns="http://www.w3.org/2000/svg" fill="none" viewBox="0 0 26 28"><path fill="#F6F4E6" d="M12.993 0a2.301 2.301 0 00-1.132.29L1.121 6.45A2.268 2.268 0 000 8.4v11.178a2.24 2.24 0 001.121 1.95l2.817 1.615c.743.45 1.6.682 2.47.667 2.026 0 3.184-1.216 3.184-3.327V8.95a.31.31 0 00-.193-.289.316.316 0 00-.12-.024H7.93a.311.311 0 00-.293.193.306.306 0 00-.022.12v11.523c0 .948-.985 1.874-2.577 1.088L2.09 19.868a.325.325 0 01-.174-.29V8.412a.345.345 0 01.174-.304L12.827 1.95a.314.314 0 01.335 0l10.736 6.158a.343.343 0 01.174.293v11.177a.336.336 0 01-.163.29L13.163 26.04a.368.368 0 01-.336 0l-2.764-1.626a.248.248 0 00-.258-.022c-.51.31-1.055.556-1.625.733-.173.053-.445.161.097.463L11.86 27.7a2.286 2.286 0 002.265 0l10.748-6.172A2.257 2.257 0 0026 19.578V8.412a2.243 2.243 0 00-1.126-1.95L14.121.29A2.301 2.301 0 0012.993 0zm2.889 8.622c-3.066 0-4.897 1.292-4.897 3.446 0 2.337 1.819 2.982 4.767 3.273 3.52.344 3.791.861 3.791 1.553 0 1.184-.963 1.69-3.227 1.69-2.85 0-3.477-.711-3.683-2.111a.3.3 0 00-.302-.259h-1.4a.305.305 0 00-.28.187.3.3 0 00-.024.116c0 1.798.986 3.94 5.688 3.94 3.402 0 5.352-1.334 5.352-3.662 0-2.305-1.571-2.92-4.865-3.361-3.347-.431-3.683-.657-3.683-1.433 0-.646.294-1.496 2.764-1.496 2.199 0 3.022.472 3.358 1.947a.31.31 0 00.297.256h1.408a.325.325 0 00.292-.218.288.288 0 00.01-.127c-.222-2.547-1.921-3.741-5.366-3.741z"/></svg>