<svg xmlns="http://www.w3.org/2000/svg" viewBox="0 0 26 24"><path d="M8.32 0A3.528 3.528 0 006.5.474c-1.7 1.005-2.347 3.452-2.004 6.5C1.747 8.194 0 9.991 0 12c0 2.01 1.747 3.806 4.496 5.026-.343 3.048.304 5.496 2.004 6.501A3.53 3.53 0 008.32 24c1.41 0 3.042-.726 4.68-1.97 1.638 1.244 3.271 1.97 4.683 1.97a3.53 3.53 0 001.82-.473c1.699-1.005 2.346-3.453 2.003-6.5C24.254 15.805 26 14.008 26 12c0-2.009-1.747-3.806-4.496-5.026.343-3.048-.304-5.495-2.004-6.501A3.512 3.512 0 0017.68 0C16.27 0 14.638.726 13 1.97 11.362.726 9.73 0 8.32 0zm0 1.942c.846 0 1.966.46 3.182 1.315-.751.73-1.45 1.515-2.089 2.35a20.7 20.7 0 00-3.076.687c-.005-.068-.017-.139-.021-.206-.116-1.974.308-3.446 1.132-3.934.267-.15.568-.223.872-.212zm9.36 0c.304-.01.605.063.872.212.825.487 1.248 1.96 1.132 3.934-.004.067-.016.138-.021.206a20.882 20.882 0 00-3.079-.687 21.496 21.496 0 00-2.086-2.35c1.216-.853 2.336-1.315 3.182-1.315zM13 4.489c.294.274.585.563.88.88-.292-.01-.583-.024-.88-.024-.297 0-.586.014-.878.024.294-.317.585-.606.878-.88zm0 2.795c.854 0 1.707.047 2.556.141.517.71.996 1.45 1.432 2.216.43.764.817 1.55 1.162 2.357a24.333 24.333 0 01-1.162 2.36 23.68 23.68 0 01-1.428 2.207c-.85.097-1.705.146-2.56.148a23.47 23.47 0 01-2.556-.14c-.518-.71-.996-1.45-1.432-2.215a24.405 24.405 0 01-1.162-2.36c.345-.806.733-1.593 1.162-2.356.435-.763.912-1.501 1.428-2.21.85-.097 1.705-.146 2.56-.148zm5.142.6c.43.106.843.222 1.23.349a18.41 18.41 0 01-.316 1.241c-.14-.267-.275-.536-.426-.803-.155-.273-.327-.52-.488-.785v-.002zm-10.286.002c-.16.264-.332.51-.486.785-.151.267-.286.535-.426.803-.122-.42-.23-.835-.319-1.243.395-.126.807-.24 1.231-.343v-.002zM4.841 8.943c.244 1.04.562 2.06.952 3.053a22.25 22.25 0 00-.95 3.046C2.957 14.112 1.896 12.95 1.896 12c0-.975 1.031-2.086 2.76-2.97.058-.03.125-.055.185-.085v-.002zm16.316.012c1.886.932 2.947 2.093 2.947 3.043 0 .975-1.031 2.086-2.76 2.97-.058.03-.125.055-.185.085a22.095 22.095 0 00-.95-3.055c.388-.989.705-2.005.948-3.042v-.001zM13 9.782c-.428 0-.847.13-1.204.373-.356.244-.634.59-.798.996a2.267 2.267 0 00-.123 1.282c.084.43.29.825.593 1.136a2.122 2.122 0 002.361.48c.396-.167.734-.452.973-.816a2.256 2.256 0 00-.27-2.802A2.142 2.142 0 0013 9.781zm-6.056 4.742c.14.268.277.536.428.804.155.274.325.522.487.786-.43-.106-.844-.222-1.232-.349.09-.407.195-.822.317-1.241zm12.112.002c.121.42.231.834.32 1.242-.398.127-.808.24-1.232.344.16-.264.332-.51.486-.784.15-.267.286-.535.426-.802zm-12.719 3.18c1.008.306 2.037.536 3.079.686a21.52 21.52 0 002.086 2.353c-1.216.854-2.336 1.315-3.182 1.315a1.668 1.668 0 01-.872-.214c-.825-.488-1.248-1.96-1.132-3.933.003-.067.016-.138.021-.207zm13.325 0c.006.068.018.14.021.207.116 1.975-.307 3.444-1.132 3.933-.266.15-.567.224-.871.214-.847 0-1.967-.461-3.183-1.315a21.54 21.54 0 002.089-2.353c1.04-.15 2.07-.38 3.077-.686zm-7.543.924c.292.01.583.024.88.024.297 0 .588-.014.88-.024-.294.316-.586.606-.88.88a17.322 17.322 0 01-.88-.879v-.001z"/></svg>