<svg xmlns="http://www.w3.org/2000/svg" xmlns:xlink="http://www.w3.org/1999/xlink"><symbol id="icon-arrow" viewBox="0 0 8 14">
<path fill-rule="evenodd" clip-rule="evenodd" d="M1.63282 0.278417L7.71985 6.32784C8.09338 6.69906 8.09338 7.30093 7.71985 7.67216L1.63282 13.7216C1.25929 14.0928 0.653679 14.0928 0.280148 13.7216C-0.0933827 13.3504 -0.0933827 12.7485 0.280148 12.3773L5.69084 7L0.280148 1.62273C-0.0933827 1.25151 -0.0933827 0.64964 0.280148 0.278417C0.653679 -0.0928057 1.25929 -0.0928057 1.63282 0.278417Z" fill="inherit"/>
</symbol><symbol id="icon-close-menu" viewBox="0 0 22 22">
<path d="M3.92612 3.92618C4.41427 3.43802 5.20573 3.43802 5.69389 3.92618L18.0683 16.3005C18.5564 16.7887 18.5564 17.5802 18.0683 18.0683C17.5801 18.5565 16.7886 18.5565 16.3005 18.0683L3.92612 5.69395C3.43796 5.20579 3.43796 4.41433 3.92612 3.92618Z"/>
<path d="M3.92611 18.0683C3.43796 17.5802 3.43796 16.7887 3.92611 16.3005L16.3005 3.92618C16.7886 3.43802 17.5801 3.43802 18.0682 3.92618C18.5564 4.41433 18.5564 5.20579 18.0682 5.69394L5.69388 18.0683C5.20573 18.5565 4.41427 18.5565 3.92611 18.0683Z"/>
</symbol><symbol id="icon-console" viewBox="0 0 26 26">
<path fill-rule="evenodd" clip-rule="evenodd" d="M0 6.5C0 4.77609 0.684819 3.12279 1.90381 1.90381C3.12279 0.684819 4.77609 0 6.5 0H19.5C21.2239 0 22.8772 0.684819 24.0962 1.90381C25.3152 3.12279 26 4.77609 26 6.5V19.5C26 21.2239 25.3152 22.8772 24.0962 24.0962C22.8772 25.3152 21.2239 26 19.5 26H6.5C4.77609 26 3.12279 25.3152 1.90381 24.0962C0.684819 22.8772 0 21.2239 0 19.5V6.5ZM6.5 2.6C5.46566 2.6 4.47368 3.01089 3.74228 3.74228C3.01089 4.47368 2.6 5.46566 2.6 6.5V19.5C2.6 20.5343 3.01089 21.5263 3.74228 22.2577C4.47368 22.9891 5.46566 23.4 6.5 23.4H19.5C20.5343 23.4 21.5263 22.9891 22.2577 22.2577C22.9891 21.5263 23.4 20.5343 23.4 19.5V6.5C23.4 5.46566 22.9891 4.47368 22.2577 3.74228C21.5263 3.01089 20.5343 2.6 19.5 2.6H6.5ZM6.5 19.5C6.5 19.1552 6.63696 18.8246 6.88076 18.5808C7.12456 18.337 7.45522 18.2 7.8 18.2H18.2C18.5448 18.2 18.8754 18.337 19.1192 18.5808C19.363 18.8246 19.5 19.1552 19.5 19.5C19.5 19.8448 19.363 20.1754 19.1192 20.4192C18.8754 20.663 18.5448 20.8 18.2 20.8H7.8C7.45522 20.8 7.12456 20.663 6.88076 20.4192C6.63696 20.1754 6.5 19.8448 6.5 19.5ZM8.7191 6.8809C8.47392 6.64409 8.14553 6.51306 7.80468 6.51602C7.46382 6.51899 7.13777 6.6557 6.89674 6.89674C6.6557 7.13777 6.51899 7.46382 6.51602 7.80468C6.51306 8.14553 6.64409 8.47392 6.8809 8.7191L9.8618 11.7L6.8809 14.6809C6.64409 14.9261 6.51306 15.2545 6.51602 15.5953C6.51899 15.9362 6.6557 16.2622 6.89674 16.5033C7.13777 16.7443 7.46382 16.881 7.80468 16.884C8.14553 16.8869 8.47392 16.7559 8.7191 16.5191L12.6191 12.6191C12.8628 12.3753 12.9997 12.0447 12.9997 11.7C12.9997 11.3553 12.8628 11.0247 12.6191 10.7809L8.7191 6.8809Z"/>
</symbol><symbol id="icon-css" viewBox="0 0 26 28">
<path fill-rule="evenodd" clip-rule="evenodd" d="M26 0L23.7059 25.0526L13 28L2.29412 25.0526L0 0H26ZM6.72941 16.2105H9.78824L9.86471 18.0526L13 19.0842L16.1353 18.0526L16.3647 14.7368H9.63529L9.48235 11.7895H16.5176L16.7471 8.8421H6.19412L5.96471 5.89474H19.9588L19.5765 11.7895L19.0412 20.2632L13 22.1789L6.95882 20.2632L6.72941 16.2105Z"/>
</symbol><symbol id="icon-dev-tools" viewBox="0 0 27 26">
<path d="M1.23622 1.36995C0.442273 2.22136 -0.00182604 3.36813 5.64365e-06 4.56215V18.9003C5.64365e-06 20.1103 0.455857 21.2707 1.26728 22.1263C2.0787 22.9818 3.17922 23.4625 4.32675 23.4625H12.9975C13.0629 23.1252 13.1793 22.8013 13.3424 22.5031L14.2449 20.8555H4.32675C3.83495 20.8555 3.3633 20.6495 3.01555 20.2829C2.66779 19.9162 2.47243 19.4189 2.47243 18.9003V6.51736H19.7794V8.15191C20.5702 7.85066 21.4154 7.7415 22.2518 7.83256V4.56215C22.2536 3.36813 21.8095 2.22136 21.0156 1.36995V1.30348H20.9526C20.1451 0.466336 19.0575 -0.00192539 17.9251 5.95071e-06H4.32675C3.19434 -0.00192539 2.10674 0.466336 1.29926 1.30348H1.23622V1.36995ZM21.2777 9.1243C21.5429 9.09823 21.8098 9.09823 22.075 9.1243C22.2048 9.13734 22.3346 9.15559 22.4632 9.18166L20.4235 12.9044C20.3253 13.0775 20.2608 13.2695 20.2337 13.4691C20.2066 13.6687 20.2174 13.8721 20.2655 14.0673C20.3136 14.2625 20.3981 14.4456 20.5139 14.6061C20.6298 14.7666 20.7748 14.9012 20.9404 15.002C21.1061 15.1029 21.2891 15.168 21.4788 15.1936C21.6685 15.2192 21.8612 15.2047 22.0456 15.1511C22.2299 15.0974 22.4024 15.0056 22.5528 14.8811C22.7032 14.7565 22.8287 14.6017 22.9218 14.4255L24.9616 10.6989C25.5213 11.3882 25.8734 12.2378 25.9727 13.1392C26.0721 14.0406 25.9143 14.9527 25.5195 15.759C25.1247 16.5653 24.5108 17.2292 23.7563 17.6657C23.0018 18.1022 22.1409 18.2915 21.2839 18.2095L17.5357 25.0527C17.3103 25.4627 16.9477 25.7691 16.5192 25.9118C16.0906 26.0545 15.6269 26.0232 15.2191 25.8241C14.8113 25.625 14.4887 25.2724 14.3146 24.8355C14.1406 24.3986 14.1276 23.9089 14.2782 23.4625C14.3146 23.3558 14.3602 23.2529 14.4142 23.1549L18.1538 16.3247C17.7099 15.6715 17.4375 14.9062 17.3642 14.1064C17.2909 13.3065 17.4193 12.5005 17.7363 11.7697C18.0534 11.039 18.5478 10.4095 19.1697 9.94498C19.7915 9.48044 20.5187 9.19734 21.2777 9.1243ZM10.2606 9.44105C10.4259 9.63164 10.5131 9.8834 10.5031 10.1415C10.4931 10.3995 10.3869 10.643 10.2074 10.8188L7.2405 13.6865L10.2074 16.5541C10.3677 16.7342 10.4574 16.9717 10.4584 17.2187C10.4595 17.4657 10.3718 17.704 10.213 17.8856C10.0542 18.0672 9.83608 18.1787 9.6025 18.1977C9.36892 18.2167 9.13719 18.1417 8.95389 17.9879L5.24525 14.4034C5.15061 14.3117 5.07506 14.2003 5.02338 14.0762C4.97169 13.9521 4.94501 13.8181 4.94501 13.6825C4.94501 13.547 4.97169 13.413 5.02338 13.2889C5.07506 13.1648 5.15061 13.0534 5.24525 12.9617L8.95389 9.37718C9.1356 9.20385 9.37493 9.1133 9.6197 9.12526C9.86448 9.13722 10.0948 9.25074 10.2606 9.44105ZM13.9123 17.9918L16.4095 15.5778C16.0069 14.3496 16.0034 13.0152 16.3996 11.7847L13.916 9.385C13.8289 9.28702 13.7235 9.20905 13.6064 9.15594C13.4894 9.10283 13.3632 9.07573 13.2358 9.07632C13.1084 9.07691 12.9825 9.10519 12.8659 9.15939C12.7493 9.21358 12.6446 9.29253 12.5582 9.39131C12.4718 9.4901 12.4057 9.60658 12.364 9.73351C12.3222 9.86044 12.3057 9.99507 12.3155 10.129C12.3253 10.263 12.3611 10.3934 12.4209 10.512C12.4806 10.6307 12.5628 10.7352 12.6625 10.8188L15.6294 13.6865L12.6625 16.5541C12.5628 16.6378 12.4806 16.7422 12.4209 16.8609C12.3611 16.9795 12.3253 17.1099 12.3155 17.2439C12.3057 17.3778 12.3222 17.5125 12.364 17.6394C12.4057 17.7663 12.4718 17.8828 12.5582 17.9816C12.6446 18.0804 12.7493 18.1593 12.8659 18.2135C12.9825 18.2677 13.1084 18.296 13.2358 18.2966C13.3632 18.2972 13.4894 18.2701 13.6064 18.217C13.7235 18.1639 13.8289 18.0859 13.916 17.9879L13.9123 17.9918Z"/>
</symbol><symbol id="icon-email" viewBox="0 0 40 40">
<path d="M20.9592 22L28.8 15.7592V24.6408C28.8 25.2816 28.1592 25.8408 27.3592 25.8408H12.6408C11.8408 25.8408 11.2 25.2816 11.2 24.6408V15.7592L18.9592 22C19.2 22.2408 19.6 22.3184 20 22.3184C20.3184 22.3184 20.7184 22.2408 20.9592 22ZM26.7184 14.1592H13.2816L19.9184 19.5184L26.7184 14.1592ZM40 20C40 31.0408 31.0408 40 20 40C8.95918 40 0 31.0408 0 20C0 8.95918 8.95918 0 20 0C31.0408 0 40 8.95918 40 20ZM31.7592 14.1592C31.7592 12.8776 30.4775 11.8408 28.8 11.8408H11.2C9.6 11.8408 8.24082 12.8816 8.24082 14.1592V25.8408C8.24082 27.1224 9.52245 28.1592 11.2 28.1592H28.8C30.4 28.1592 31.7592 27.1184 31.7592 25.8408V14.1592Z"/>
</symbol><symbol id="icon-figma" viewBox="0 0 26 38">
<path d="M6.1308 38C4.52182 38 2.97874 37.3908 1.84102 36.3063C0.703298 35.2219 0.0641333 33.751 0.0641333 32.2174C0.0641333 30.6837 0.703298 29.2129 1.84102 28.1285C2.97874 27.044 4.52182 26.4348 6.1308 26.4348H10.4641C10.9238 26.4348 11.3647 26.6088 11.6898 26.9187C12.0148 27.2285 12.1975 27.6488 12.1975 28.087V32.2174C12.1975 33.751 11.5583 35.2219 10.4206 36.3063C9.28286 37.3908 7.73978 38 6.1308 38Z"/>
<path d="M19.9333 11.5652H15.6C15.1403 11.5652 14.6994 11.3911 14.3743 11.0813C14.0493 10.7715 13.8667 10.3512 13.8667 9.91304V1.65217C13.8667 1.21399 14.0493 0.793753 14.3743 0.483911C14.6994 0.174068 15.1403 0 15.6 0H19.9333C21.5423 0 23.0854 0.609237 24.2231 1.69369C25.3608 2.77814 26 4.24897 26 5.78261C26 7.31625 25.3608 8.78708 24.2231 9.87153C23.0854 10.956 21.5423 11.5652 19.9333 11.5652Z"/>
<path d="M6.06667 11.5652H10.4C10.8597 11.5652 11.3006 11.3911 11.6257 11.0813C11.9507 10.7715 12.1333 10.3512 12.1333 9.91304V1.65217C12.1333 1.21399 11.9507 0.793753 11.6257 0.483911C11.3006 0.174068 10.8597 0 10.4 0H6.06667C4.45769 0 2.91461 0.609237 1.77689 1.69369C0.639165 2.77814 0 4.24897 0 5.78261C0 7.31625 0.639165 8.78708 1.77689 9.87153C2.91461 10.956 4.45769 11.5652 6.06667 11.5652Z"/>
<path d="M6.06667 24.7826H10.4C10.8597 24.7826 11.3006 24.6085 11.6257 24.2987C11.9507 23.9889 12.1333 23.5686 12.1333 23.1304V14.8696C12.1333 14.4314 11.9507 14.0111 11.6257 13.7013C11.3006 13.3915 10.8597 13.2174 10.4 13.2174H6.06667C4.45769 13.2174 2.91461 13.8266 1.77689 14.9111C0.639165 15.9955 0 17.4664 0 19C0 20.5336 0.639165 22.0045 1.77689 23.0889C2.91461 24.1734 4.45769 24.7826 6.06667 24.7826Z"/>
<path d="M19.0667 23.1304C21.9385 23.1304 24.2667 20.9113 24.2667 18.1739C24.2667 15.4365 21.9385 13.2174 19.0667 13.2174C16.1948 13.2174 13.8667 15.4365 13.8667 18.1739C13.8667 20.9113 16.1948 23.1304 19.0667 23.1304Z"/>
</symbol><symbol id="icon-github" viewBox="0 0 30 30">
<path fill-rule="evenodd" clip-rule="evenodd" d="M14.9968 5.07331e-07C11.4354 0.000373597 7.99023 1.30043 5.27797 3.66751C2.5657 6.0346 0.763309 9.31423 0.193344 12.9195C-0.376621 16.5248 0.323035 20.2204 2.16711 23.345C4.01118 26.4697 6.87931 28.8194 10.2583 29.9737C11.0077 30.1144 11.2811 29.6395 11.2811 29.2316C11.2811 28.8672 11.2682 27.8994 11.2608 26.6163C7.08936 27.5454 6.20922 24.5543 6.20922 24.5543C5.93348 23.6247 5.34279 22.8267 4.54376 22.3044C3.18212 21.3508 4.64687 21.3697 4.64687 21.3697C5.12304 21.4363 5.57804 21.6138 5.97699 21.8885C6.37594 22.1633 6.70827 22.5281 6.94851 22.9549C7.15177 23.3343 7.42633 23.6686 7.75631 23.9385C8.08629 24.2084 8.46515 24.4085 8.87101 24.5274C9.27686 24.6463 9.70166 24.6815 10.1209 24.631C10.5401 24.5805 10.9454 24.4453 11.3133 24.2333C11.3817 23.4535 11.7193 22.7243 12.2653 22.177C8.93159 21.7889 5.43311 20.469 5.43311 14.5757C5.41174 13.0477 5.9646 11.57 6.97705 10.4488C6.51995 9.1222 6.57262 7.66686 7.12435 6.37863C7.12435 6.37863 8.3838 5.96509 11.248 7.95534C13.7058 7.26423 16.2998 7.26423 18.7577 7.95534C21.62 5.96509 22.8776 6.37863 22.8776 6.37863C23.4305 7.66648 23.4838 9.12205 23.0268 10.4488C24.0394 11.5697 24.5914 13.0479 24.5679 14.5757C24.5679 20.4841 21.0621 21.7842 17.7211 22.1647C18.0789 22.5376 18.3549 22.9847 18.5306 23.476C18.7062 23.9673 18.7773 24.4914 18.7393 25.0132C18.7393 27.0686 18.7209 28.7274 18.7209 29.2316C18.7209 29.6432 18.9906 30.1219 19.752 29.9718C23.1298 28.8149 25.996 26.4634 27.8379 23.3377C29.6798 20.2121 30.3772 16.5164 29.8053 12.9118C29.2334 9.30712 27.4295 6.02875 24.7164 3.66315C22.0033 1.29755 18.558 -0.000937023 14.9968 5.07331e-07Z" fill="inherit"/>
</symbol><symbol id="icon-gulp" viewBox="0 0 26 26">
<path fill-rule="evenodd" clip-rule="evenodd" d="M2 0C0.895431 0 0 0.89543 0 2V24C0 25.1046 0.89543 26 2 26H24C25.1046 26 26 25.1046 26 24V2C26 0.895431 25.1046 0 24 0H2ZM6.77075 5.90969C7.06797 5.76571 7.36604 5.68765 7.66151 5.6875C8.01061 5.69059 8.35258 5.80016 8.65174 6.00477H8.6535C8.9695 6.22196 9.26613 6.55925 9.54251 7.02966C9.60375 7.13003 9.64574 7.24392 9.66574 7.36395C9.68334 7.47104 9.69214 7.57513 9.69214 7.67121C9.69214 7.90041 9.64373 8.08958 9.54251 8.22769C9.50036 8.29292 9.44518 8.34581 9.38151 8.38201C9.31785 8.41821 9.24752 8.43667 9.17634 8.43587C9.04519 8.43587 8.92285 8.35881 8.81722 8.20868C8.71512 8.06255 8.59629 7.86138 8.47834 7.60215V7.60316C8.36392 7.36995 8.24245 7.20481 8.10866 7.10673C7.97893 7.00957 7.82651 6.959 7.6712 6.9616C7.42298 6.9616 7.16508 7.0797 6.87725 7.32391C6.58678 7.56812 6.30512 7.87839 6.02345 8.27474C5.74091 8.67208 5.46628 9.12647 5.20838 9.63791C4.9496 10.1494 4.71635 10.6698 4.51654 11.2103C4.31674 11.7497 4.1583 12.2702 4.04211 12.7906C3.92593 13.3111 3.86783 13.7725 3.86783 14.1858C3.8678 14.3271 3.87603 14.4682 3.89248 14.6082C3.90786 14.7411 3.93803 14.8713 3.98226 14.9955C4.0189 15.1042 4.081 15.1994 4.16182 15.2708C4.23985 15.3408 4.33709 15.3773 4.43644 15.3739C4.59153 15.3674 4.74277 15.3172 4.87655 15.2277C5.04907 15.1247 5.22247 14.9935 5.40467 14.8234C5.97606 14.2913 6.48226 13.6746 6.90982 12.9898V12.9888C7.01431 12.8261 7.1076 12.6544 7.18884 12.4754L7.67296 10.7098V10.7088C7.73633 10.5157 7.82083 10.3725 7.93438 10.2865C8.03097 10.2058 8.14727 10.1614 8.26709 10.1594C8.32387 10.1595 8.38029 10.1696 8.43433 10.1894C8.49082 10.2106 8.54292 10.2447 8.58749 10.2895C8.63662 10.3381 8.67416 10.4001 8.69663 10.4696C8.72657 10.5504 8.74155 10.6372 8.74064 10.7249C8.74293 11.1648 8.67739 11.6018 8.547 12.016C8.49595 12.2131 8.42906 12.4133 8.36216 12.6135C8.29527 12.8126 8.22925 13.0218 8.16235 13.24L8.09898 13.4192L7.91061 13.9496C7.85516 14.1458 7.7953 14.367 7.73193 14.6112L7.53388 15.3619C7.48645 15.5218 7.44574 15.68 7.40525 15.8375C7.38188 15.9284 7.35855 16.019 7.33408 16.1095L7.16684 16.7721L7.04097 17.2675L6.982 17.5077V17.5087L6.97343 17.5356L6.96629 17.5584C6.94559 17.6247 6.92283 17.6975 6.88781 17.7779C6.84468 17.876 6.79363 17.9691 6.74346 18.0562L6.7417 18.0572V18.0592C6.68097 18.1463 6.62023 18.2233 6.54893 18.2834C6.4826 18.3436 6.40055 18.377 6.31568 18.3785C6.25968 18.3816 6.20384 18.3695 6.15283 18.343C6.10183 18.3165 6.05716 18.2765 6.02257 18.2263C5.95304 18.1192 5.93103 17.9491 5.93103 17.7079V17.4927C5.93103 17.4004 5.9641 17.2579 6.01277 17.0482L6.01553 17.0363C6.0657 16.8181 6.12468 16.5719 6.19949 16.2977C6.2369 16.1447 6.27913 15.9898 6.32205 15.8325C6.35689 15.7047 6.39219 15.5753 6.42571 15.4439L6.59823 14.8354C6.43363 15.0336 6.26727 15.2337 6.08507 15.4259C5.85797 15.6741 5.62208 15.8943 5.38618 16.0865C5.14237 16.2776 4.89767 16.4408 4.65209 16.5659C4.40476 16.691 4.16446 16.7511 3.93297 16.7511C3.66715 16.7511 3.44093 16.682 3.24993 16.5439C3.06055 16.413 2.89911 16.2359 2.77726 16.0254C2.65843 15.8122 2.56425 15.57 2.5044 15.3078L2.50352 15.3058V15.3038C2.47095 15.0576 2.4375 14.7884 2.4375 14.5271V14.4321C2.43805 14.4015 2.441 14.371 2.4463 14.341C2.46567 13.8626 2.52552 13.3751 2.62234 12.8747C2.72269 12.3703 2.84944 11.8728 3.00787 11.3764C3.16807 10.881 3.35203 10.3936 3.5624 9.92016V9.91916C3.77981 9.46576 4.0069 9.01838 4.24984 8.59801C4.49366 8.17865 4.75508 7.78731 5.03058 7.43301C5.28933 7.0974 5.57518 6.79013 5.88438 6.51522C6.17573 6.25599 6.47148 6.05482 6.77075 5.90969ZM16.9494 6.66334C17.058 6.58694 17.1827 6.54544 17.3103 6.54324C17.4332 6.54155 17.5527 6.58863 17.6483 6.67635C17.7531 6.76943 17.8067 6.92357 17.8067 7.11974C17.8049 7.22115 17.7886 7.32155 17.7583 7.41699V7.419C17.7495 7.44369 17.7406 7.46957 17.7314 7.49645C17.7061 7.5703 17.6781 7.65201 17.6404 7.73727C17.5488 7.96647 17.4397 8.24971 17.3147 8.586L16.8966 9.68896C16.8553 9.80396 16.8131 9.92058 16.7704 10.0387C16.6668 10.3255 16.5598 10.6214 16.4539 10.924L16.0023 12.1791C15.8518 12.5855 15.718 12.9668 15.593 13.3321L15.2638 14.2849L15.2392 14.315C15.2005 14.4261 15.1617 14.5542 15.1248 14.7003C15.086 14.8474 15.0684 14.9775 15.0684 15.0906C15.0659 15.1442 15.0756 15.1977 15.0966 15.2458C15.1098 15.2738 15.1327 15.2878 15.1855 15.2878C15.2806 15.2803 15.3732 15.2503 15.4575 15.1997C15.571 15.1387 15.6943 15.0596 15.8263 14.9585C15.9592 14.8584 16.0983 14.7433 16.2409 14.6132C16.3242 14.5369 16.4076 14.4573 16.4906 14.378C16.5513 14.32 16.6119 14.2621 16.6722 14.2059C16.8139 14.0637 16.9512 13.9216 17.0806 13.7795C17.1551 13.6981 17.2254 13.6198 17.2913 13.5462C17.3398 13.492 17.386 13.4404 17.4299 13.3922L17.4291 13.3932L17.4318 13.3902L17.4299 13.3922C17.4625 13.3521 17.5034 13.3218 17.5488 13.3041C17.5612 13.2981 17.5726 13.2941 17.5849 13.2901C17.6316 13.1259 17.6765 12.9638 17.717 12.8046V12.8036L17.834 12.4253C17.8846 12.2612 17.9439 12.1007 18.0118 11.9449C18.0748 11.7959 18.1525 11.6556 18.2433 11.5265C18.3314 11.4064 18.4352 11.3364 18.5426 11.3364C18.6993 11.3364 18.8181 11.3754 18.8947 11.4655H18.8964V11.4665C18.9743 11.5701 19.014 11.7038 19.0073 11.8398C19.0073 11.8728 19.0047 11.9209 18.9959 11.9889V11.9899C18.988 12.056 18.9792 12.1241 18.966 12.1971L18.9343 12.3733C19.0428 12.2438 19.1543 12.1176 19.2688 11.9949C19.426 11.833 19.5921 11.6825 19.7661 11.5446C19.9301 11.4118 20.1066 11.3004 20.2924 11.2123C20.5819 11.0683 20.9062 11.0425 21.2105 11.1392C21.3311 11.1802 21.4446 11.2403 21.5415 11.3204C21.6415 11.3984 21.7248 11.501 21.7853 11.6206C21.8492 11.7508 21.8814 11.898 21.8786 12.047C21.8786 12.2582 21.8302 12.4804 21.7413 12.7136C21.6488 12.9468 21.5388 13.184 21.398 13.4142C21.2642 13.6494 21.1146 13.8766 20.9561 14.0968L20.8932 14.1839C20.7594 14.3693 20.636 14.5404 20.5125 14.6973L20.1622 15.1627C20.1164 15.2237 20.0821 15.2748 20.0592 15.3148C20.0372 15.3539 20.0284 15.3829 20.0284 15.3899C20.0276 15.4099 20.0306 15.4299 20.0371 15.4485C20.0437 15.4672 20.0536 15.484 20.0662 15.498C20.0874 15.521 20.1349 15.541 20.2035 15.541C20.2528 15.541 20.3417 15.503 20.4579 15.4239C20.6334 15.2987 20.8021 15.1617 20.9632 15.0136L21.0151 14.9658C21.2246 14.773 21.4874 14.5313 21.7958 14.2249C22.1206 13.9056 22.5308 13.4992 23.0044 13.0178C23.0003 13.0017 22.984 12.9875 22.969 12.9744C22.9421 12.9509 22.9192 12.931 22.9779 12.9097C23.0316 12.8687 23.0809 12.8347 23.1276 12.8087C23.1721 12.7818 23.2215 12.767 23.2719 12.7656C23.3168 12.7652 23.3608 12.7788 23.3993 12.8049C23.4378 12.831 23.4693 12.8687 23.4902 12.9137C23.5393 13.0126 23.5642 13.1245 23.5624 13.238C23.5624 13.3731 23.536 13.5103 23.4841 13.6484C23.4357 13.7868 23.3562 13.9083 23.2535 14.0007C22.8618 14.396 22.5114 14.7563 22.2113 15.0816C21.9023 15.4079 21.6163 15.6891 21.339 15.9253C21.0617 16.1656 20.7906 16.3477 20.5283 16.4818C20.2643 16.6179 19.9817 16.686 19.6745 16.686C19.3938 16.686 19.1667 16.6179 19.0056 16.4658C18.8454 16.3247 18.7644 16.1165 18.7644 15.8593V15.8022C18.7644 15.7852 18.7662 15.7793 18.7682 15.7724L18.7697 15.7672C18.7707 15.7624 18.7716 15.7576 18.7723 15.7527L18.7732 15.7452V15.7382C18.8035 15.55 18.8647 15.3701 18.9537 15.2077V15.2067C19.064 14.9976 19.1851 14.7961 19.3163 14.6032C19.4589 14.394 19.6103 14.1848 19.7687 13.9747C19.8597 13.8552 19.9451 13.7386 20.0283 13.6251C20.09 13.541 20.1508 13.458 20.2115 13.3771C20.3444 13.188 20.4518 13.0178 20.5433 12.8577V12.8567C20.6322 12.7106 20.6701 12.5835 20.6701 12.5034C20.6707 12.4842 20.6677 12.4651 20.6613 12.4473C20.655 12.4295 20.6453 12.4135 20.6331 12.4003C20.6023 12.3793 20.5521 12.3613 20.4764 12.3613C20.3233 12.3653 20.1731 12.4091 20.0372 12.4894C19.8832 12.5724 19.7309 12.6946 19.5786 12.8347C19.429 12.9858 19.2802 13.1459 19.1385 13.3331C18.9968 13.5213 18.8648 13.7184 18.731 13.9186V13.9196C18.6069 14.1268 18.4907 14.325 18.3824 14.5321V14.5331C18.2821 14.7413 18.1914 14.9295 18.1166 15.0996L18.1157 15.1006L18.025 15.3268L17.9 15.6691L17.7487 16.0495L17.6069 16.4198L17.4899 16.733C17.4587 16.823 17.4341 16.8791 17.4173 16.917L17.4151 16.9222C17.4083 16.9414 17.3998 16.9692 17.3889 17.0031C17.3744 17.0486 17.3556 17.1076 17.3314 17.1784L17.1818 17.6138L17.0066 18.1363L16.6968 19.0851C16.6554 19.2082 16.6299 19.2923 16.6229 19.3293V19.3333L16.6211 19.3373C16.5797 19.4604 16.5375 19.5855 16.4856 19.7026C16.4345 19.8187 16.3782 19.9208 16.3113 20.0109C16.2465 20.0996 16.1681 20.1742 16.0798 20.2311L16.0789 20.2321C15.99 20.2821 15.8914 20.3121 15.784 20.3121C15.6595 20.3168 15.5369 20.2765 15.4337 20.197C15.3343 20.117 15.2823 19.9578 15.2823 19.7496C15.2823 19.6516 15.2911 19.5445 15.3175 19.4344C15.3338 19.3343 15.3637 19.2428 15.3939 19.1504L15.4011 19.1281V19.1271C15.4193 19.0512 15.4455 18.982 15.4704 18.9162C15.4816 18.8865 15.4925 18.8575 15.5024 18.8289C15.536 18.7374 15.5665 18.6446 15.5939 18.5506L15.5948 18.5486L15.5957 18.5456C15.7573 18.1292 15.9283 17.7128 16.1007 17.2928L16.1977 17.0563C16.4019 16.5569 16.5982 16.0685 16.791 15.5841C16.8181 15.5154 16.8437 15.4471 16.8693 15.379L16.8698 15.3776C16.884 15.34 16.8981 15.3024 16.9125 15.2648L16.9037 15.2738C16.6686 15.531 16.4248 15.7702 16.1889 15.9714C15.953 16.1726 15.7163 16.3267 15.4804 16.4518H15.4786C15.2401 16.5679 15.0086 16.627 14.7859 16.627C14.6301 16.627 14.4981 16.5979 14.3898 16.5359C14.2833 16.4758 14.2041 16.3948 14.1337 16.2957L14.1328 16.2937C14.0694 16.1876 14.0237 16.0687 13.9999 15.9434L13.9955 15.9073L13.9745 15.9255C13.9262 15.9674 13.8782 16.0091 13.8282 16.0485C13.5994 16.2326 13.3732 16.3817 13.1505 16.4948C12.926 16.6079 12.7227 16.665 12.5396 16.665C12.454 16.6679 12.3687 16.6504 12.2894 16.6135C12.2101 16.5766 12.1385 16.5212 12.0793 16.4508C11.9569 16.3037 11.9015 16.0635 11.9015 15.7332C11.9015 15.556 11.9349 15.3388 11.9701 15.1186L11.9572 15.1418C11.8822 15.2765 11.806 15.4135 11.7061 15.546C11.5626 15.7482 11.3953 15.9314 11.2105 16.0945C11.023 16.2586 10.8135 16.3938 10.582 16.4908C10.3505 16.5879 10.0979 16.646 9.82418 16.646C9.70095 16.646 9.57948 16.627 9.46329 16.5869C9.34612 16.5518 9.23767 16.4864 9.14642 16.3958C9.05752 16.3047 8.9871 16.1856 8.92725 16.0384V16.0364C8.87355 15.8863 8.84803 15.7002 8.84803 15.486V15.484L8.86563 15.2528V15.2518C8.89754 15.0144 8.94551 14.7802 9.00911 14.5512C9.09273 14.2359 9.20979 13.8265 9.37703 13.3211C9.58582 12.7039 9.81782 12.0971 10.0724 11.5025C10.1499 11.3084 10.237 11.1672 10.3532 11.0762C10.4259 11.0132 10.5109 10.971 10.6009 10.9531C10.691 10.9351 10.7835 10.942 10.8707 10.9731C10.9314 10.9882 10.9888 11.0171 11.0395 11.0581C11.0901 11.099 11.133 11.1511 11.1656 11.2113L11.1665 11.2123V11.2133C11.1989 11.2786 11.2153 11.3525 11.214 11.4275C11.214 11.4825 11.2043 11.5326 11.1955 11.5726V11.5736L11.1947 11.5756C11.17 11.6627 11.1357 11.7698 11.0758 11.9059L10.8575 12.3763V12.3773C10.8001 12.4947 10.7422 12.6223 10.6812 12.7567C10.6544 12.8158 10.627 12.8763 10.5988 12.9378C10.5081 13.1389 10.4245 13.3531 10.3497 13.5633C10.2748 13.7805 10.2088 14.0017 10.1507 14.2239C10.0926 14.4481 10.061 14.6633 10.0521 14.8674C10.0508 14.9456 10.0665 15.023 10.0979 15.0926C10.1234 15.1507 10.1719 15.1807 10.2449 15.1807C10.4694 15.1807 10.6938 15.0986 10.9051 14.9235C11.119 14.7483 11.317 14.5291 11.4992 14.2689C11.6839 14.0006 11.8502 13.7165 11.9965 13.4192C12.1462 13.1169 12.2632 12.8427 12.3627 12.5925C12.4296 12.4253 12.4956 12.2472 12.5449 12.057C12.5922 11.8732 12.6514 11.6935 12.7218 11.5195C12.7757 11.3665 12.8512 11.2245 12.9454 11.0992C12.9847 11.0419 13.0353 10.9959 13.0931 10.9648C13.1508 10.9337 13.2142 10.9183 13.2781 10.92C13.3445 10.9184 13.4103 10.9348 13.47 10.9678C13.5297 11.0009 13.5816 11.0497 13.6214 11.1102C13.7048 11.2361 13.7491 11.3899 13.7472 11.5476C13.7401 11.6775 13.7136 11.8051 13.6689 11.9249L13.655 11.9672C13.6079 12.1104 13.5529 12.2774 13.4841 12.4594L13.2411 13.1039C13.1522 13.3301 13.0717 13.5605 13 13.7945C12.9251 14.0267 12.8591 14.2579 12.8089 14.4781C12.7597 14.7033 12.735 14.9085 12.735 15.0936C12.735 15.1757 12.7535 15.2267 12.7843 15.2598C12.8151 15.2928 12.8635 15.3128 12.9357 15.3128C13.0448 15.3128 13.1813 15.2768 13.3432 15.1837H13.345C13.5087 15.0996 13.6812 14.9785 13.8634 14.8184C13.9409 14.7496 14.0164 14.6778 14.0896 14.6032C14.1315 14.416 14.1832 14.2318 14.2446 14.0517C14.2962 13.9018 14.3466 13.753 14.3967 13.6049C14.4763 13.3696 14.5553 13.1362 14.638 12.9027L15.0051 11.8568L16.6678 7.09472C16.7179 6.92075 16.8161 6.76982 16.9477 6.66434L16.9494 6.66334Z"/>
</symbol><symbol id="icon-html" viewBox="0 0 26 28">
<path d="M25.8336 0.197218C25.7742 0.134977 25.702 0.0853002 25.6216 0.0513471C25.5412 0.017394 25.4543 -9.23583e-05 25.3664 3.66848e-07H0.632922C0.545081 -9.23583e-05 0.458182 0.017394 0.377751 0.0513471C0.29732 0.0853002 0.225118 0.134977 0.165738 0.197218C0.10588 0.259459 0.0604292 0.333198 0.0323853 0.41357C0.00434145 0.493941 -0.00565805 0.579118 0.00304667 0.663478L2.23071 24.6619C2.24187 24.7848 2.29162 24.9016 2.37336 24.9967C2.45509 25.0918 2.56496 25.1608 2.6884 25.1945L12.8246 27.9762C12.8807 27.9925 12.9389 28.0005 12.9975 28C13.056 28.0004 13.1142 27.9924 13.1703 27.9762L23.3141 25.1945C23.437 25.1599 23.5463 25.0906 23.6279 24.9957C23.7095 24.9008 23.7596 24.7845 23.7718 24.6619L25.9969 0.663478C26.0057 0.579067 25.9956 0.493833 25.9675 0.413441C25.9393 0.333049 25.8937 0.259342 25.8336 0.197218ZM20.5003 8.47182H8.59087L8.8751 11.5701H20.2129L19.3627 20.7267L12.9949 22.5765L12.9316 22.5576L6.63857 20.7242L6.29483 16.9935H9.37837L9.51194 18.4416L13.031 19.1502L16.4868 18.4435L16.8552 14.5247H6.06631L5.22816 5.51173H20.7744L20.5003 8.47182Z"/>
</symbol><symbol id="icon-js" viewBox="0 0 26 26">
<path d="M24.3509 0H1.65162C1.21363 0.000164071 0.793632 0.174226 0.483929 0.483929C0.174226 0.793632 0.000164071 1.21363 0 1.65162L0 24.3484C0.000164071 24.7864 0.174226 25.2064 0.483929 25.5161C0.793632 25.8258 1.21363 25.9998 1.65162 26H24.3484C24.786 26 25.2057 25.8263 25.5154 25.5171C25.825 25.2079 25.9993 24.7885 26 24.3509V1.65162C26 1.21401 25.8263 0.79429 25.5171 0.484623C25.2079 0.174955 24.7885 0.000656084 24.3509 0V0ZM14.2381 19.9234C14.2381 22.3996 12.787 23.5238 10.6687 23.5238C9.85853 23.5119 9.06786 23.2737 8.38594 22.8361C7.70402 22.3986 7.158 21.7791 6.80952 21.0476L8.75643 19.8714C8.91341 20.2118 9.16172 20.5019 9.47374 20.7095C9.78576 20.9172 10.1493 21.0342 10.5238 21.0476C11.31 21.0476 11.7619 20.7381 11.7619 19.5458V11.7619H14.2381V19.9234ZM19.609 23.5238C18.7519 23.5692 17.9008 23.3578 17.1645 22.9167C16.4283 22.4756 15.8404 21.8248 15.4762 21.0476L17.3333 19.8095C17.8385 20.6366 18.39 21.4271 19.5557 21.4271C20.535 21.4271 21.0476 20.9387 21.0476 20.2614C21.0476 19.4567 20.5159 19.1663 19.4381 18.6946L18.8481 18.4408C17.1433 17.7153 16.0092 16.8059 16.0092 14.8813C16.0092 13.1114 17.3612 11.7619 19.4697 11.7619C20.1534 11.7125 20.8365 11.8655 21.4339 12.2018C22.0312 12.5381 22.5163 13.0429 22.8286 13.6531L20.9907 14.8355C20.8702 14.5319 20.6602 14.2723 20.3884 14.0913C20.1166 13.9102 19.7962 13.8163 19.4697 13.8221C19.3276 13.808 19.1842 13.8236 19.0485 13.868C18.9129 13.9124 18.788 13.9846 18.6817 14.0799C18.5755 14.1752 18.4903 14.2917 18.4315 14.4218C18.3728 14.5518 18.3418 14.6927 18.3405 14.8355C18.3405 15.5437 18.7782 15.829 19.7916 16.2692L20.3815 16.523C22.3922 17.3816 23.5238 18.2619 23.5238 20.233C23.5238 22.3581 21.8524 23.5238 19.609 23.5238Z"/>
</symbol><symbol id="icon-luna" viewBox="0 0 22 22">
<path d="M5 20.8006C8.78428 18.9799 11.375 15.2747 11.375 11C11.375 6.72531 8.78428 3.02013 5 1.19942C6.59389 0.432557 8.39953 0 10.3125 0C16.7673 0 22 4.92487 22 11C22 17.0751 16.7673 22 10.3125 22C8.39952 22 6.5939 21.5674 5 20.8006Z"/>
</symbol><symbol id="icon-nodejs" viewBox="0 0 26 28">
<path d="M12.9935 3.18858e-05C12.5972 -0.00205298 12.2071 0.0981355 11.8614 0.290801L1.12126 6.4508C0.779812 6.65053 0.496751 6.93543 0.300091 7.27731C0.103432 7.6192 -8.17841e-06 8.0062 8.75898e-06 8.40003V19.5785C-0.00109366 19.9725 0.101887 20.36 0.298654 20.702C0.49542 21.0441 0.779077 21.3288 1.12126 21.5277L3.93793 23.1431C4.68103 23.5936 5.53767 23.8248 6.40793 23.8097C8.43376 23.8097 9.59184 22.5939 9.59184 20.4831V8.95034C9.59198 8.90933 9.584 8.86869 9.56834 8.83074C9.55269 8.7928 9.52966 8.75829 9.50059 8.72919C9.47152 8.70009 9.43696 8.67697 9.3989 8.66114C9.36084 8.64532 9.32001 8.6371 9.27876 8.63696H7.93001C7.88841 8.63623 7.84708 8.64383 7.8085 8.65932C7.76992 8.67481 7.73488 8.69787 7.70546 8.72712C7.67604 8.75637 7.65284 8.7912 7.63726 8.82956C7.62168 8.86791 7.61402 8.90899 7.61476 8.95034V20.4734C7.61476 21.4211 6.63001 22.3473 5.03751 21.5611L2.08976 19.8682C2.03684 19.8404 1.99266 19.7987 1.96208 19.7476C1.93149 19.6965 1.9157 19.638 1.91643 19.5785V8.41188C1.91571 8.35054 1.93138 8.29012 1.96184 8.23676C1.99229 8.18341 2.03643 8.13904 2.08976 8.10819L12.8267 1.95034C12.8769 1.91863 12.9351 1.90179 12.9946 1.90179C13.0541 1.90179 13.1123 1.91863 13.1625 1.95034L23.8983 8.10819C23.9504 8.1378 23.9937 8.18039 24.0241 8.23177C24.0545 8.28314 24.0709 8.34151 24.0717 8.40111V19.5785C24.072 19.6366 24.0572 19.6938 24.0287 19.7446C24.0003 19.7953 23.9591 19.8379 23.9092 19.8682L13.1625 26.04C13.1106 26.0666 13.053 26.0804 12.9946 26.0804C12.9362 26.0804 12.8786 26.0666 12.8267 26.04L10.0631 24.4139C10.0263 24.3871 9.98271 24.3708 9.93722 24.3671C9.89173 24.3633 9.84607 24.372 9.80526 24.3923C9.29572 24.7015 8.74999 24.9475 8.18026 25.1246C8.00692 25.1785 7.73501 25.2862 8.27667 25.5877L11.8614 27.6996C12.206 27.8961 12.5963 27.9995 12.9935 27.9995C13.3907 27.9995 13.781 27.8961 14.1256 27.6996L24.8744 21.5277C25.2174 21.3294 25.5019 21.0449 25.6995 20.7028C25.897 20.3607 26.0007 19.973 26 19.5785V8.41188C26.0006 8.01728 25.897 7.62943 25.6995 7.28716C25.5019 6.94489 25.2174 6.66019 24.8744 6.46157L14.1213 0.290801C13.7768 0.098856 13.3884 -0.00130828 12.9935 3.18858e-05ZM15.8817 8.62188C12.8158 8.62188 10.985 9.91419 10.985 12.068C10.985 14.405 12.8039 15.05 15.7517 15.3408C19.2725 15.6854 19.5433 16.2023 19.5433 16.8937C19.5433 18.0783 18.5803 18.5845 16.3161 18.5845C13.4669 18.5845 12.8386 17.8726 12.6328 16.4726C12.6225 16.4004 12.5862 16.3344 12.5306 16.2869C12.475 16.2393 12.4039 16.2135 12.3305 16.2142H10.9308C10.8909 16.2142 10.8514 16.222 10.8145 16.2372C10.7776 16.2525 10.7442 16.2748 10.716 16.3029C10.6878 16.331 10.6655 16.3644 10.6503 16.4011C10.6351 16.4378 10.6274 16.4771 10.6275 16.5168C10.6275 18.3153 11.6133 20.4562 16.315 20.4562C19.7167 20.4562 21.6667 19.123 21.6667 16.7946C21.6667 14.49 20.0958 13.8751 16.8025 13.4336C13.455 13.0028 13.1192 12.7766 13.1192 12.0013C13.1192 11.3551 13.4128 10.5054 15.8828 10.5054C18.0819 10.5054 18.9053 10.9771 19.2411 12.4525C19.2539 12.5223 19.2903 12.5857 19.3443 12.6321C19.3983 12.6785 19.4666 12.7052 19.5379 12.7077H20.9463C20.9893 12.7056 21.0315 12.695 21.0703 12.6765C21.1092 12.658 21.144 12.632 21.1727 12.6C21.2023 12.5687 21.2244 12.5311 21.2376 12.4901C21.2507 12.4491 21.2544 12.4057 21.2485 12.3631C21.0264 9.81618 19.3267 8.62188 15.8817 8.62188Z"/>
</symbol><symbol id="icon-open-menu" viewBox="0 0 22 22">
<path d="M0 4.5C0 3.80964 0.559644 3.25 1.25 3.25H20.75C21.4404 3.25 22 3.80964 22 4.5C22 5.19036 21.4404 5.75 20.75 5.75H1.25C0.559644 5.75 0 5.19036 0 4.5Z"/>
<path d="M0 17.5C0 16.8096 0.559644 16.25 1.25 16.25H20.75C21.4404 16.25 22 16.8096 22 17.5C22 18.1904 21.4404 18.75 20.75 18.75H1.25C0.559644 18.75 0 18.1904 0 17.5Z"/>
<path d="M4 11C4 10.3096 4.55964 9.75 5.25 9.75H20.75C21.4404 9.75 22 10.3096 22 11C22 11.6904 21.4404 12.25 20.75 12.25H5.25C4.55964 12.25 4 11.6904 4 11Z"/>
</symbol><symbol id="icon-open-url" viewBox="0 0 20 20">
<path d="M16.3647 4.71597e-07C16.1439 0.00023889 15.9282 0.0663132 15.7452 0.189781C15.5621 0.313248 15.42 0.488501 15.337 0.693146C15.2541 0.897791 15.234 1.12253 15.2793 1.33866C15.3247 1.55478 15.4334 1.75247 15.5917 1.90647L16.1987 2.51392C13.0662 2.5645 10.0788 3.84346 7.87969 6.07543C5.68062 8.30739 4.44582 11.3138 4.44113 14.4475C4.43907 14.5933 4.46575 14.7381 4.51964 14.8736C4.57354 15.0091 4.65359 15.1327 4.75523 15.2373C4.85688 15.3419 4.97812 15.4254 5.11204 15.4831C5.24595 15.5408 5.38993 15.5716 5.53573 15.5736C5.68153 15.5757 5.82632 15.549 5.96181 15.4951C6.0973 15.4412 6.22086 15.3611 6.32541 15.2595C6.42997 15.1578 6.51348 15.0365 6.57118 14.9026C6.62888 14.7687 6.65964 14.6247 6.6617 14.4788C6.6617 14.4683 6.6617 14.458 6.6617 14.4475C6.65788 11.9032 7.65427 9.45936 9.43588 7.64332C11.2175 5.82727 13.6415 4.78458 16.1849 4.74021L15.5917 5.3335C15.4865 5.43451 15.4023 5.55525 15.3437 5.68883C15.2852 5.82241 15.2536 5.96621 15.2506 6.11202C15.2476 6.25783 15.2734 6.4028 15.3265 6.53865C15.3795 6.67449 15.4588 6.79856 15.5598 6.90376C15.6608 7.00896 15.7815 7.09324 15.915 7.15178C16.0486 7.21032 16.1924 7.24197 16.3381 7.24494C16.4839 7.2479 16.6289 7.22212 16.7647 7.16906C16.9005 7.11599 17.0245 7.0367 17.1297 6.93569C17.1405 6.92542 17.1514 6.91459 17.1616 6.90376L19.5612 4.50395C19.698 4.40008 19.8088 4.2659 19.8849 4.11197C19.961 3.95803 20.0004 3.78853 20 3.6168C19.9996 3.44506 19.9593 3.27576 19.8824 3.12221C19.8055 2.96866 19.6941 2.83504 19.5568 2.73185L17.1616 0.336207C17.0581 0.229691 16.9341 0.14505 16.7973 0.0872999C16.6604 0.0295495 16.5133 -0.000136465 16.3647 4.71597e-07V4.71597e-07ZM3.60842 0.0108279C2.6528 0.0153541 1.73761 0.397057 1.06188 1.07293C0.38615 1.7488 0.00452526 2.66417 0 3.61998L0 16.3908C0.00452526 17.3467 0.38615 18.262 1.06188 18.9379C1.73761 19.6138 2.6528 19.9955 3.60842 20H16.3767C17.3323 19.9955 18.2475 19.6138 18.9232 18.9379C19.5989 18.262 19.9806 17.3467 19.9851 16.3908V12.2264C19.9871 12.0806 19.9605 11.9358 19.9066 11.8003C19.8527 11.6647 19.7726 11.5412 19.671 11.4366C19.5693 11.332 19.4481 11.2485 19.3142 11.1908C19.1803 11.1331 19.0363 11.1023 18.8905 11.1002C18.596 11.0961 18.312 11.2091 18.1008 11.4144C17.8896 11.6197 17.7687 11.9005 17.7645 12.1951C17.7645 12.2056 17.7645 12.2159 17.7645 12.2264V16.3908C17.7667 16.5737 17.7323 16.7552 17.6633 16.9246C17.5943 17.094 17.4921 17.2479 17.3628 17.3772C17.2335 17.5065 17.0797 17.6087 16.9103 17.6777C16.741 17.7467 16.5595 17.7811 16.3767 17.779H3.60842C3.42556 17.7811 3.24412 17.7467 3.07477 17.6777C2.90541 17.6087 2.75155 17.5065 2.62225 17.3772C2.49294 17.2479 2.39079 17.094 2.32181 16.9246C2.25283 16.7552 2.21841 16.5737 2.22057 16.3908V3.61998C2.21841 3.43709 2.25283 3.25561 2.32181 3.08622C2.39079 2.91683 2.49294 2.76294 2.62225 2.63361C2.75155 2.50428 2.90541 2.40211 3.07477 2.33311C3.24412 2.26412 3.42556 2.22969 3.60842 2.23185H7.77198C7.91778 2.23391 8.06256 2.20722 8.19806 2.15332C8.33355 2.09941 8.4571 2.01934 8.56166 1.91768C8.66622 1.81601 8.74973 1.69475 8.80743 1.5608C8.86513 1.42686 8.89588 1.28286 8.89794 1.13702C8.9 0.991189 8.87332 0.846377 8.81943 0.710856C8.76554 0.575334 8.68548 0.451757 8.58384 0.34718C8.4822 0.242603 8.36095 0.159075 8.22704 0.101363C8.09312 0.0436518 7.94915 0.0128878 7.80334 0.0108279H3.60842V0.0108279Z" fill="inherit"/>
</symbol><symbol id="icon-react" viewBox="0 0 26 24">
<path d="M8.31964 0.000545941C7.68295 -0.00988961 7.05499 0.153048 6.5 0.472687C4.80025 1.47945 4.15278 3.92593 4.49619 6.97396C1.74706 8.19443 0 9.99093 0 12C0 14.0091 1.74706 15.806 4.49619 17.0261C4.15278 20.0741 4.80025 22.5224 6.5 23.5274C7.05488 23.8473 7.68292 24.0102 8.31964 23.9995C9.73086 23.9995 11.362 23.2745 13 22.0303C14.6384 23.2745 16.2713 23.9995 17.6825 23.9995C18.3192 24.0099 18.9472 23.847 19.5022 23.5274C21.2016 22.5224 21.8494 20.0741 21.506 17.0261C24.254 15.806 26 14.0087 26 12C26 9.9913 24.2529 8.19443 21.5038 6.97396C21.8472 3.92593 21.1998 1.47945 19.5 0.472687C18.9453 0.152281 18.3171 -0.0107105 17.6804 0.000545941C16.2691 0.000545941 14.638 0.72558 13 1.96971C11.3616 0.72558 9.7305 0.000545941 8.31964 0.000545941ZM8.31964 1.94161C9.16644 1.94161 10.2863 2.40266 11.5021 3.25673C10.7508 3.9869 10.0527 4.77245 9.41344 5.60708C8.37286 5.75784 7.34461 5.98733 6.33714 6.29366C6.33208 6.226 6.31981 6.15501 6.31583 6.08809C6.19992 4.11375 6.6235 2.64187 7.44792 2.15383C7.71468 2.00442 8.01574 1.93112 8.31964 1.94161V1.94161ZM17.6804 1.94161C17.9842 1.93127 18.2853 2.00456 18.5521 2.15383C19.3765 2.64076 19.8001 4.11338 19.6842 6.08809C19.6802 6.15501 19.6679 6.226 19.6629 6.29366C18.6547 5.98733 17.6257 5.75785 16.5844 5.60708C15.946 4.77242 15.2486 3.98686 14.4979 3.25673C15.7138 2.40377 16.8339 1.94161 17.6804 1.94161ZM13 4.4894C13.2936 4.76299 13.5854 5.05212 13.8804 5.36898C13.5879 5.35862 13.2972 5.34494 13 5.34494C12.7028 5.34494 12.4136 5.35862 12.1218 5.36898C12.4164 5.05249 12.7068 4.76262 13 4.4894ZM13 7.28416C13.8538 7.28396 14.7071 7.33099 15.5559 7.42503C16.0734 8.13583 16.5517 8.8757 16.9885 9.64117C17.4173 10.4046 17.8051 11.1914 18.1502 11.9982C17.8054 12.8057 17.4176 13.5933 16.9885 14.3574C16.5528 15.1199 16.076 15.8569 15.5603 16.565C14.7101 16.6618 13.8554 16.7112 13 16.7129C12.1462 16.7131 11.2929 16.6661 10.4441 16.5721C9.9265 15.8621 9.44824 15.123 9.01153 14.3581C8.58259 13.594 8.19478 12.8064 7.84983 11.9989C8.19486 11.1922 8.58267 10.4053 9.01153 9.64191C9.44709 8.87867 9.92389 8.1409 10.4397 7.43205C11.2899 7.33509 12.1446 7.28572 13 7.28416V7.28416ZM18.1415 7.88423C18.5716 7.99034 18.9847 8.10606 19.3729 8.23288C19.2851 8.63958 19.1775 9.05515 19.0558 9.47442C18.9161 9.20674 18.781 8.93795 18.6304 8.67063C18.4752 8.39778 18.3033 8.1508 18.1415 7.88607V7.88423ZM7.85633 7.88644C7.69528 8.15006 7.52411 8.39667 7.36956 8.67063C7.21897 8.93795 7.08356 9.20637 6.94417 9.47442C6.82247 9.05441 6.71306 8.63884 6.62495 8.23103C7.02036 8.10495 7.43239 7.99145 7.85633 7.88829V7.88644ZM4.84106 8.94349C5.08463 9.9836 5.40291 11.0039 5.79331 11.996C5.40406 12.9861 5.08651 14.0043 4.84322 15.0421C2.95678 14.1112 1.89583 12.9499 1.89583 12C1.89583 11.0251 2.92717 9.91403 4.65508 9.03001C4.71394 8.99969 4.78075 8.97492 4.84106 8.94534V8.94349ZM21.1568 8.95458C23.0432 9.88704 24.1042 11.0483 24.1042 11.9982C24.1042 12.9731 23.0728 14.0842 21.3449 14.9682C21.2861 14.9985 21.2192 15.0233 21.1589 15.0529C20.9162 14.0121 20.5986 12.9911 20.2089 11.9982C20.5971 11.0094 20.9139 9.99273 21.1568 8.95643V8.95458ZM13 9.78166C12.5715 9.78166 12.1526 9.91177 11.7963 10.1555C11.44 10.3993 11.1623 10.7457 10.9983 11.1511C10.8343 11.5564 10.7914 12.0025 10.875 12.4328C10.9586 12.8631 11.1649 13.2584 11.4679 13.5686C11.7709 13.8789 12.157 14.0902 12.5773 14.1758C12.9976 14.2614 13.4332 14.2174 13.8291 14.0495C14.2251 13.8816 14.5634 13.5973 14.8015 13.2325C15.0396 12.8677 15.1667 12.4388 15.1667 12C15.1667 11.4117 14.9384 10.8474 14.5321 10.4314C14.1257 10.0154 13.5746 9.78166 13 9.78166ZM6.94417 14.5238C7.08392 14.7918 7.22114 15.0602 7.37172 15.3276C7.52664 15.6023 7.69672 15.8496 7.8585 16.114C7.42842 16.0079 7.01531 15.8921 6.62711 15.7653C6.71667 15.3579 6.82247 14.9434 6.94417 14.5238ZM19.0558 14.526C19.1775 14.9456 19.2873 15.3597 19.3751 15.7675C18.9778 15.8955 18.5676 16.0086 18.1437 16.1118C18.3047 15.8481 18.4759 15.6015 18.6304 15.3276C18.7807 15.061 18.9164 14.7933 19.0558 14.526V14.526ZM6.33714 17.7056C7.3453 18.0121 8.37428 18.2416 9.41561 18.3922C10.054 19.2276 10.7514 20.0139 11.5021 20.7448C10.2863 21.5989 9.16644 22.0599 8.31964 22.0599C8.01556 22.0696 7.71452 21.9955 7.44792 21.8455C6.6235 21.3585 6.19992 19.8859 6.31583 17.9134C6.31944 17.8465 6.33172 17.7748 6.33714 17.7064V17.7056ZM19.6621 17.7056C19.6676 17.774 19.6795 17.8458 19.6834 17.9134C19.7994 19.8878 19.3758 21.3574 18.5514 21.8455C18.2848 21.9957 17.9837 22.0697 17.6796 22.0599C16.8328 22.0599 15.713 21.5989 14.4972 20.7448C15.2486 20.0139 15.9467 19.2276 16.5858 18.3922C17.6266 18.2417 18.6551 18.0125 19.6629 17.7064L19.6621 17.7056ZM12.1189 18.63C12.4114 18.6399 12.7021 18.6536 12.9993 18.6536C13.2965 18.6536 13.5872 18.6399 13.8797 18.63C13.5846 18.9464 13.2929 19.2356 12.9993 19.5095C12.7064 19.2371 12.4146 18.9479 12.1196 18.6314L12.1189 18.63Z"/>
</symbol><symbol id="icon-sass" viewBox="0 0 26 26">
<path d="M13 0C10.4288 0 7.91543 0.762437 5.77759 2.19089C3.63975 3.61935 1.97351 5.64968 0.989572 8.02511C0.00563276 10.4006 -0.251811 13.0144 0.249797 15.5362C0.751405 18.0579 1.98953 20.3743 3.80762 22.1924C5.6257 24.0105 7.94208 25.2486 10.4638 25.7502C12.9856 26.2518 15.5994 25.9944 17.9749 25.0104C20.3503 24.0265 22.3806 22.3602 23.8091 20.2224C25.2376 18.0846 26 15.5712 26 13C25.9961 9.55338 24.6252 6.24904 22.1881 3.81191C19.751 1.37478 16.4466 0.00388959 13 0ZM16.1924 3.95652C18.3532 3.92035 20.1347 4.70713 20.5067 6.16765C21.0397 8.25896 19.2259 10.7561 16.9034 11.6542C15.4896 12.2706 13.9177 12.4262 12.4105 12.099C12.1188 12.0189 11.846 11.8812 11.6083 11.694C11.3706 11.5069 11.1727 11.2741 11.0263 11.0093C10.9816 10.8923 10.9036 10.6979 11.0263 10.63C11.1014 10.5882 11.1308 10.5978 11.332 10.82C11.5237 11.0308 12.2929 11.5971 13.7529 11.4332C17.5867 11.0037 19.8951 8.02439 19.1654 6.42143C18.6567 5.29948 15.7 4.79417 12.0086 6.63339C7.50213 8.879 7.26079 10.7301 7.21953 11.4332C7.11383 13.368 9.6087 14.3853 10.9545 15.8261C10.9861 15.86 11.0167 15.8945 11.0472 15.929C11.6525 15.7419 12.2847 15.6563 12.918 15.6757C15.0987 15.6384 16.3308 17.0752 16.28 18.3605C16.259 18.6905 16.1387 19.0063 15.9349 19.2667C15.7312 19.527 15.4534 19.7197 15.1382 19.8193C15.0127 19.8408 14.9438 19.8448 14.9263 19.7464C14.9138 19.6786 14.9596 19.647 15.1066 19.5554C15.2784 19.4552 15.4266 19.3191 15.541 19.1564C15.6555 18.9937 15.7334 18.8082 15.7696 18.6126C15.8481 18.0643 15.4378 16.753 13.3391 16.5083C12.7274 16.4255 12.1055 16.4612 11.5073 16.6134C11.7289 17.2137 11.8078 17.8573 11.7379 18.4934C11.6679 19.1294 11.451 19.7405 11.1043 20.2783C10.684 20.9408 10.0671 21.4552 9.33989 21.7498C8.61272 22.0443 7.81167 22.1041 7.04883 21.9208C6.54013 21.7795 5.77314 20.731 6.435 19.2683C7.0624 17.8818 9.74209 16.5253 10.1089 16.345V16.3382C8.86544 15.2693 5.84718 13.8286 5.42157 11.6243C5.30061 10.9997 5.59114 9.50356 7.42922 7.78587C9.08975 6.33808 11.0195 5.23196 13.108 4.53078C14.0986 4.17487 15.14 3.98096 16.1924 3.95652ZM10.6261 16.9972L10.5164 17.0571V17.0617C9.73537 17.4461 9.02154 17.9542 8.40253 18.5663C7.59653 19.418 7.3727 20.488 7.82205 20.7474C8.23861 20.9888 9.20852 20.7028 9.90374 19.9448C10.1265 19.7045 10.3129 19.433 10.4571 19.1388C10.4848 19.0823 10.5136 19.0258 10.5345 18.9647C10.5554 18.9037 10.5809 18.846 10.6007 18.7856C10.7868 18.2052 10.7957 17.5826 10.6261 16.9972Z"/>
</symbol><symbol id="icon-sun" viewBox="0 0 22 22">
<path d="M17.1112 11C17.1112 14.3751 14.3751 17.1111 11 17.1111C7.62497 17.1111 4.88893 14.3751 4.88893 11C4.88893 7.62495 7.62497 4.88892 11 4.88892C14.3751 4.88892 17.1112 7.62495 17.1112 11Z"/>
<path d="M3.66667 11C3.66667 11.675 2.84586 12.2223 1.83333 12.2223C0.820811 12.2223 0 11.675 0 11C0 10.325 0.820811 9.77781 1.83333 9.77781C2.84586 9.77781 3.66667 10.325 3.66667 11Z"/>
<path d="M22 11.0001C22 11.6751 21.1792 12.2223 20.1667 12.2223C19.1542 12.2223 18.3333 11.6751 18.3333 11.0001C18.3333 10.325 19.1542 9.77783 20.1667 9.77783C21.1792 9.77783 22 10.325 22 11.0001Z"/>
<path d="M12.2222 20.1666C12.2222 21.1791 11.675 21.9999 11 21.9999C10.325 21.9999 9.77779 21.1791 9.77779 20.1666C9.77779 19.1541 10.325 18.3333 11 18.3333C11.675 18.3333 12.2222 19.1541 12.2222 20.1666Z"/>
<path d="M12.2222 1.83333C12.2222 2.84586 11.675 3.66667 11 3.66667C10.325 3.66667 9.77779 2.84586 9.77779 1.83333C9.77779 0.820811 10.325 0 11 0C11.675 0 12.2222 0.820811 12.2222 1.83333Z"/>
<path d="M5.88235 5.74749C5.40505 6.2248 4.43771 6.03133 3.72175 5.31537C3.00579 4.59941 2.81232 3.63208 3.28963 3.15477C3.76694 2.67746 4.73427 2.87093 5.45023 3.58689C6.16619 4.30285 6.35966 5.27019 5.88235 5.74749Z"/>
<path d="M18.7104 18.8451C18.2331 19.3225 17.2657 19.129 16.5498 18.413C15.8338 17.6971 15.6403 16.7297 16.1176 16.2524C16.595 15.7751 17.5623 15.9686 18.2782 16.6845C18.9942 17.4005 19.1877 18.3678 18.7104 18.8451Z"/>
<path d="M5.31531 18.2784C4.59935 18.9943 3.63202 19.1878 3.15471 18.7105C2.6774 18.2332 2.87087 17.2659 3.58683 16.5499C4.30279 15.8339 5.27013 15.6405 5.74744 16.1178C6.22474 16.5951 6.03128 17.5624 5.31531 18.2784Z"/>
<path d="M18.4132 5.45014C17.6972 6.1661 16.7299 6.35957 16.2526 5.88226C15.7752 5.40495 15.9687 4.43762 16.6847 3.72166C17.4006 3.00569 18.368 2.81223 18.8453 3.28953C19.3226 3.76684 19.1291 4.73418 18.4132 5.45014Z"/>
</symbol><symbol id="icon-telegram" viewBox="0 0 40 40">
<path d="M20 0C23.9556 0 27.8224 1.17298 31.1114 3.37061C34.4004 5.56824 36.9638 8.69181 38.4776 12.3463C39.9913 16.0009 40.3874 20.0222 39.6157 23.9018C38.844 27.7814 36.9392 31.3451 34.1421 34.1421C31.3451 36.9392 27.7814 38.844 23.9018 39.6157C20.0222 40.3874 16.0009 39.9913 12.3463 38.4776C8.69181 36.9638 5.56824 34.4004 3.37061 31.1114C1.17298 27.8224 0 23.9556 0 20C0 14.6957 2.10714 9.60859 5.85786 5.85786C9.60859 2.10714 14.6957 0 20 0V0ZM26.8991 28.1522C27.267 27.0217 28.9861 15.7748 29.2035 13.5583C29.2647 13.3074 29.2428 13.0434 29.1412 12.8061C29.0396 12.5687 28.8637 12.3706 28.64 12.2417C27.9374 12.0395 27.1846 12.1074 26.5296 12.4322C25.3452 12.8591 10.2043 19.2878 9.32957 19.66C8.5 20.0078 7.71565 20.3965 7.71565 20.953C7.71565 21.3443 7.94783 21.5617 8.58522 21.793C9.2513 22.0304 10.933 22.5391 11.9191 22.8122C12.814 23.0399 13.7621 22.9154 14.5678 22.4643C15.213 22.0635 22.6591 17.0809 23.1939 16.6443C23.7287 16.2078 24.1504 16.767 23.7157 17.2043C23.2809 17.6417 18.1678 22.6017 17.4939 23.2913C17.347 23.4313 17.236 23.6047 17.1704 23.7968C17.1048 23.9889 17.0865 24.1939 17.1171 24.3946C17.1476 24.5952 17.2262 24.7855 17.3459 24.9493C17.4657 25.1132 17.6233 25.2457 17.8052 25.3357C18.4322 25.7304 22.9409 28.7548 23.62 29.24C24.1963 29.6788 24.8959 29.9255 25.62 29.9452C26.253 29.947 26.5852 29.1165 26.8991 28.1522Z"/>
</symbol><symbol id="icon-ts" viewBox="0 0 26 26">
<path d="M25.381 0H0.619048C0.454866 0 0.297409 0.0652209 0.181315 0.181315C0.0652209 0.297409 0 0.454866 0 0.619048V25.381C0 25.5451 0.0652209 25.7026 0.181315 25.8187C0.297409 25.9348 0.454866 26 0.619048 26H25.381C25.5451 26 25.7026 25.9348 25.8187 25.8187C25.9348 25.7026 26 25.5451 26 25.381V0.619048C26 0.454866 25.9348 0.297409 25.8187 0.181315C25.7026 0.0652209 25.5451 0 25.381 0ZM15.4762 13.8945H12.381V23.5238H9.90476V13.8945H6.80952V11.7619H15.4762V13.8945ZM16.1701 22.9741V20.4001C17.0782 21.0443 18.1531 21.4123 19.2654 21.4599C20.9523 21.4599 20.8873 20.3568 20.8873 20.2057C20.8873 18.6049 16.1076 18.6049 16.1076 15.0583C16.1076 10.2353 23.0719 12.1383 23.0719 12.1383L22.9852 14.4288C22.2378 13.9576 21.3806 13.6892 20.4979 13.65C19.1787 13.65 18.7027 14.2771 18.7027 14.95C18.7027 16.6833 23.5257 16.5075 23.5257 19.9897C23.5238 25.3531 16.1701 22.9741 16.1701 22.9741Z"/>
</symbol><symbol id="icon-webpack" viewBox="0 0 26 29">
<path d="M19.9952 9.87302L13.0007 13.9525L6.00571 9.87325L13.0007 5.98726L19.9952 9.87302ZM13.6195 15.0366V22.4963L20.5905 18.6247V10.9708L13.6195 15.0366ZM0.911304 22.4484L12.3804 29V23.9244L5.2093 19.9416L0.911304 22.4484ZM12.3804 22.4963V15.0357L5.40948 10.9705V18.6247L12.3804 22.4963ZM13.6196 0V4.90292L21.2494 9.14162L25.3914 6.72588L13.6196 0ZM20.7919 19.941L13.6196 23.9244V28.9999L25.0902 22.4476L20.7919 19.941ZM21.8296 10.2482V19.1014L26 21.5334V7.8159L21.8296 10.2482ZM4.75151 9.14202L12.3804 4.90383V0L0.608569 6.72577L4.75151 9.14202ZM4.17037 19.1026V10.2479L0 7.8159V21.535L4.17037 19.1026Z"/>
</symbol><symbol id="logo" viewBox="0 0 38 21">
<path d="M0 0.502913V20.4971H3.72419V7.38058L12.1036 20.4971H15.6815V0.502913H11.9573V13.6602L3.56458 0.502913H0Z" fill="inherit"/>
<path d="M30.4053 3.22136C29.3679 1.99806 28.4102 1.15534 27.5324 0.693204C26.6545 0.231068 25.7235 0 24.7525 0C23.2363 0 21.9594 0.502913 20.9219 1.49515C19.8845 2.48738 19.3791 3.6699 19.3791 5.05631C19.3791 6.02136 19.685 6.98641 20.3101 7.95146C20.9219 8.9165 22.3052 10.2893 24.4333 12.0563C25.5506 12.9942 26.2688 13.6874 26.6013 14.1359C26.9205 14.5981 27.0935 15.0466 27.0935 15.4951C27.0935 15.9981 26.8673 16.433 26.4417 16.8136C26.0028 17.1942 25.4708 17.3845 24.8323 17.3845C23.6087 17.3845 22.518 16.501 21.587 14.734L18.4613 16.6641C19.1929 18.1592 20.0707 19.2602 21.1082 19.9534C22.1456 20.6602 23.356 21 24.7525 21C26.5348 21 27.9713 20.4699 29.0886 19.3961C30.1925 18.3359 30.7511 16.9767 30.7511 15.332C30.7511 14.4893 30.5915 13.7146 30.2723 13.0078C29.9531 12.301 29.4211 11.5534 28.6762 10.765C28.3703 10.4524 27.5058 9.69126 26.0959 8.46796C24.5796 7.16311 23.6619 6.3068 23.3693 5.89903C23.1432 5.6 23.0368 5.28738 23.0368 4.94757C23.0368 4.62136 23.1831 4.32233 23.5023 4.05049C23.8082 3.77864 24.2072 3.64272 24.6993 3.64272C25.6969 3.64272 26.6811 4.33592 27.6521 5.70874L30.4053 3.22136Z" fill="inherit"/>
<path d="M35.9118 16.6233C35.3266 16.6233 34.8344 16.8408 34.4354 17.2485C34.0231 17.6563 33.8236 18.1592 33.8236 18.7437C33.8236 19.3417 34.0231 19.8447 34.4354 20.2524C34.8344 20.6738 35.3266 20.8777 35.9118 20.8777C36.4837 20.8777 36.9758 20.6738 37.3882 20.2524C37.7872 19.8447 38 19.3417 38 18.7437C38 18.1592 37.7872 17.6563 37.3882 17.2485C36.9758 16.8408 36.4837 16.6233 35.9118 16.6233Z" fill="inherit"/>
</symbol></svg>